<?xml version="1.0" encoding="UTF-8" standalone="no"?>
<!-- Created with Inkscape (http://www.inkscape.org/) -->

<svg
   width="779.86847mm"
   height="331.54611mm"
   viewBox="0 0 779.86847 331.54611"
   version="1.1"
   id="svg1"
   xml:space="preserve"
   inkscape:version="1.3.2 (091e20e, 2023-11-25)"
   sodipodi:docname="hypseus-2-rick.svg"
   xmlns:inkscape="http://www.inkscape.org/namespaces/inkscape"
   xmlns:sodipodi="http://sodipodi.sourceforge.net/DTD/sodipodi-0.dtd"
   xmlns:xlink="http://www.w3.org/1999/xlink"
   xmlns="http://www.w3.org/2000/svg"
   xmlns:svg="http://www.w3.org/2000/svg"><sodipodi:namedview
     id="namedview1"
     pagecolor="#505050"
     bordercolor="#ffffff"
     borderopacity="1"
     inkscape:showpageshadow="0"
     inkscape:pageopacity="0"
     inkscape:pagecheckerboard="1"
     inkscape:deskcolor="#505050"
     inkscape:document-units="mm"
     inkscape:zoom="0.12724549"
     inkscape:cx="1328.1414"
     inkscape:cy="1681.7885"
     inkscape:window-width="1920"
     inkscape:window-height="1011"
     inkscape:window-x="0"
     inkscape:window-y="0"
     inkscape:window-maximized="1"
     inkscape:current-layer="layer1" /><defs
     id="defs1"><linearGradient
       id="linearGradient12"
       inkscape:collect="always"><stop
         style="stop-color:#238003;stop-opacity:1;"
         offset="0.44982764"
         id="stop12" /><stop
         style="stop-color:#e6f500;stop-opacity:1;"
         offset="1"
         id="stop13" /></linearGradient><linearGradient
       inkscape:collect="always"
       xlink:href="#linearGradient12"
       id="linearGradient22"
       gradientUnits="userSpaceOnUse"
       gradientTransform="translate(167.29912,164.26581)"
       x1="3448.0754"
       y1="172.17842"
       x2="3446.9739"
       y2="462.65402" /></defs><g
     inkscape:label="Layer 1"
     inkscape:groupmode="layer"
     id="layer1"
     transform="translate(-3316.7741,-307.31264)"><g
       id="g23"
       transform="matrix(0.89651912,0,0,0.89651912,454.75348,22.592338)"><path
         style="fill:url(#linearGradient22);fill-opacity:1"
         d="m 3400.7423,594.29341 -0.029,-32.23212 -0.7938,0.21025 c -0.4365,0.11564 -2.0152,0.39839 -3.5081,0.62834 l -2.7144,0.4181 -1.9575,-1.51015 -1.9574,-1.51016 -0.091,-23.80351 -0.091,-23.80352 -1.5875,2.3445 c -0.8731,1.28948 -2.2033,3.32795 -2.9558,4.52994 -2.0859,3.33145 -3.7166,5.25868 -9.1628,10.8285 -4.5117,4.61419 -5.6936,5.58794 -12.0655,9.94043 -5.7351,3.91742 -13.5439,8.75679 -14.13,8.75679 -0.1581,0 -13.1005,6.43681 -14.2604,7.0923 -2.0821,1.17665 -2.1061,1.2347 -2.1061,5.09866 0,1.98821 0.3535,8.03579 0.7856,13.43907 0.6408,8.01437 0.787,12.55361 0.7937,24.6408 0.01,14.00172 -0.039,15.10453 -0.8429,20.05022 -0.618,3.80051 -0.9425,5.07019 -1.1849,4.63694 -0.6028,-1.07702 -2.4095,-8.05429 -2.7386,-10.57604 -0.8526,-6.53173 -2.475,-26.91464 -3.1592,-39.6875 -0.3316,-6.19183 -0.4837,-7.24928 -1.5221,-10.58334 l -1.1536,-3.70416 -1.6626,-0.10753 -1.6626,-0.10752 v 12.89572 12.89571 h -1.7227 c -1.3448,0 -1.7577,-0.13544 -1.8822,-0.61736 -0.088,-0.33955 -1.0096,-5.62775 -2.0487,-11.75157 l -1.8893,-11.13421 -5.6654,-0.614 c -13.5811,-1.47191 -21.5393,-4.07247 -28.2158,-9.22036 -2.0132,-1.55222 -3.8137,-3.13972 -4.0012,-3.52777 -0.1875,-0.38806 -1.3378,-1.89618 -2.5561,-3.35139 -2.1918,-2.61797 -5.0639,-7.86982 -6.9014,-12.61986 -0.8413,-2.17472 -0.8561,-2.40477 -0.8561,-13.32742 v -11.11451 l 1.0327,-2.01841 c 0.568,-1.11013 1.5918,-2.89154 2.2752,-3.95869 1.2068,-1.88454 1.2202,-1.94309 0.4666,-2.0382 -0.4267,-0.0539 -5.4932,-0.47289 -11.2588,-0.93119 -10.2142,-0.81189 -10.5443,-0.86189 -12.8764,-1.95013 -1.3164,-0.61427 -2.9491,-1.64444 -3.6282,-2.28926 -0.6791,-0.64482 -1.4426,-1.23447 -1.6966,-1.31033 -0.2541,-0.0759 -0.8487,-1.08728 -1.3213,-2.2476 -0.7557,-1.85519 -0.8596,-2.6549 -0.861,-6.62949 0,-5.72443 0.8912,-10.05547 3.0503,-14.78922 0.8614,-1.88872 3.1268,-7.30533 5.0342,-12.03691 3.2437,-8.04654 3.6802,-8.90812 6.7495,-13.32291 2.6788,-3.85331 4.8329,-7.79707 11.7305,-21.47698 4.6469,-9.21632 9.1294,-17.78882 9.9609,-19.05 0.8315,-1.26118 4.2291,-5.30931 7.5502,-8.99584 8.6746,-9.62903 11.1385,-12.98013 13.2968,-18.08503 0.6557,-1.55087 2.5784,-4.44251 5.5362,-8.32607 2.4923,-3.2725 5.3105,-7.26891 6.2627,-8.88091 1.3307,-2.253 2.5249,-3.65105 5.1629,-6.04445 1.8875,-1.71244 3.9706,-3.66031 4.6292,-4.32858 2.4457,-2.48178 7.2912,-6.41568 10.6858,-8.67561 5.026,-3.34589 6.4925,-3.69129 15.6729,-3.69129 h 7.2605 l 2.915,2.38125 c 3.7765,3.08488 5.9858,5.99799 7.6319,10.06342 0.7247,1.78966 2.5052,5.58023 3.9566,8.42348 1.5318,3.00082 2.9648,6.37723 3.4157,8.04828 0.4272,1.58331 1.3382,4.41639 2.0244,6.29574 1.1461,3.13861 2.2814,7.16498 4.0188,14.25207 0.3669,1.49666 1.6075,5.62416 2.7567,9.17222 1.1493,3.54807 2.681,8.43541 3.4038,10.86076 0.7228,2.42535 1.928,5.5381 2.6783,6.91722 0.965,1.77382 1.8497,4.35436 3.0235,8.81945 l 1.6594,6.31194 0.019,7.12796 0.019,7.12796 -1.4422,1.5151 c -0.7931,0.8333 -2.7718,3.16188 -4.3969,5.17462 -2.604,3.22512 -3.4584,3.99694 -7.1974,6.50192 -3.8352,2.5694 -4.531,2.9027 -7.2447,3.47032 -3.7817,0.79097 -6.1083,0.81274 -8.3191,0.0778 -2.2461,-0.74659 -2.8174,-1.27097 -3.5496,-3.25767 -0.3309,-0.89787 -0.7941,-1.87061 -1.0293,-2.16166 -0.2352,-0.29104 -0.5445,-0.92604 -0.6872,-1.41111 -0.1428,-0.48507 -0.6248,-1.59632 -1.071,-2.46944 -1.4213,-2.78106 -2.555,-8.2543 -3.3247,-16.05139 -0.4023,-4.07458 -0.7288,-7.94242 -0.7256,-8.5952 0,-0.65278 -0.4581,-2.71653 -1.0251,-4.58611 -0.567,-1.86959 -1.275,-4.5105 -1.5733,-5.86869 -0.3643,-1.65844 -1.6436,-4.67075 -3.8953,-9.17222 -2.5617,-5.12101 -3.7827,-8.07642 -5.174,-12.52361 -1.7958,-5.74036 -4.5376,-12.7524 -7.3452,-18.78542 -1.3567,-2.91515 -1.4978,-3.08681 -2.5385,-3.08681 h -1.1019 l 0.2055,1.85209 c 0.1131,1.01864 0.3091,6.13833 0.4356,11.37708 l 0.23,9.525 -0.9693,3.70417 c -0.5331,2.03729 -1.0855,3.92253 -1.2275,4.18942 -0.1641,0.30857 -0.6441,-0.59061 -1.3181,-2.46944 -1.3786,-3.84294 -1.7158,-5.40263 -2.5495,-11.79112 -0.9861,-7.55761 -0.9287,-7.4845 -2.934,-3.73151 l -1.6692,3.12382 v 16.68197 16.68198 l -1.1465,1.52292 c -0.6306,0.8376 -1.3119,1.52783 -1.5141,1.53383 -0.2021,0.006 -1.0336,-0.66781 -1.8477,-1.49735 l -1.4803,-1.50826 -0.092,-13.39019 -0.092,-13.39019 -3.7821,4.52937 c -2.0801,2.49116 -4.7214,6.13952 -5.8695,8.10748 -2.558,4.3845 -11.2744,20.56747 -13.803,25.62671 -1.0183,2.03729 -2.5656,4.54475 -3.4385,5.57212 -1.291,1.51943 -2.3373,3.65868 -5.6074,11.46528 -2.2111,5.27853 -4.3955,10.36056 -4.8542,11.2934 l -0.834,1.69607 1.0415,3.23871 c 0.5729,1.78128 1.2278,3.36439 1.4555,3.51801 0.2277,0.15362 6.6846,0.22334 14.3487,0.15494 14.7343,-0.13151 20.646,-0.54632 31.3972,-2.2031 13.039,-2.00935 12.3667,-1.96958 31.0444,-1.83617 l 17.4625,0.12473 6.3163,1.9312 6.3163,1.93121 3.6517,3.09316 c 2.0084,1.70124 4.2064,3.91686 4.8844,4.92361 0.678,1.00676 1.2268,1.59446 1.2196,1.30601 -0.01,-0.28845 0.6501,-19.65383 1.4607,-43.03418 l 1.4739,-42.50972 3.5042,-5.46806 c 4.4372,-6.92372 7.2753,-9.75674 12.4325,-12.40989 1.9318,-0.99384 4.3073,-2.37849 5.2788,-3.07701 1.7254,-1.24062 1.8532,-1.27277 5.5173,-1.38801 3.518,-0.11063 3.8082,-0.0668 4.6711,0.70556 0.506,0.45294 1.4829,2.2036 2.1709,3.89036 1.1516,2.82325 1.2509,3.35372 1.2509,6.67881 0,1.98659 -0.4634,7.11527 -1.0299,11.39706 -0.6732,5.08875 -1.1055,10.22872 -1.2481,14.84062 -0.564,18.22982 -4.3428,105.77071 -5.6724,131.40972 -0.2803,5.40474 -1.3286,8.04945 -4.8759,12.30111 -4.0444,4.84749 -3.9267,4.41111 -5.1718,19.1796 -0.5932,7.0361 -1.2963,13.7454 -1.5623,14.90957 -0.7397,3.23622 -1.5282,8.69797 -1.961,13.58195 -0.2149,2.42534 -0.6985,5.99722 -1.0747,7.9375 -0.3763,1.94027 -0.9173,4.87715 -1.2023,6.52638 -0.285,1.64924 -0.8617,3.95112 -1.2815,5.11528 -0.4198,1.16417 -1.2059,3.38667 -1.747,4.93889 l -0.9837,2.82222 z m -58.8238,-64.3948 c 3.6766,-1.38388 7.1929,-2.99525 9.1603,-4.19777 3.4077,-2.08285 5.8653,-3.94513 6.0946,-4.61823 0.1251,-0.36735 0.9636,-1.7961 1.8633,-3.175 l 1.6359,-2.50709 0.1078,-5.29166 0.1077,-5.29167 -1.9978,-3.3829 -1.9978,-3.38289 -3.578,-1.81133 c -1.9679,-0.99623 -4.3718,-1.97297 -5.3419,-2.17053 -5.2917,-1.0776 -14.0501,-1.30688 -27.1639,-0.7111 -10.2965,0.46778 -14.5116,0.9172 -17.5699,1.87332 l -2.5384,0.79359 -0.6289,4.21953 c -1.0099,6.77635 -0.2893,13.25353 1.9496,17.52378 1.8785,3.58292 9.1256,10.31187 13.001,12.0716 1.8937,0.85984 1.9797,0.86558 13.2751,0.88577 11.1692,0.02 11.4086,0.005 13.6213,-0.82742 z m 310.7114,88.07205 c -1.8352,-7.01162 -1.7976,-6.66782 -1.7976,-16.45206 0,-9.12878 -0.027,-9.49086 -1.0706,-14.22872 -1.176,-5.33973 -2.3518,-14.59672 -2.6563,-20.91297 -0.1707,-3.53867 -0.3325,-4.35211 -1.2669,-6.36744 -1.0115,-2.18156 -1.1727,-2.34573 -2.8894,-2.94197 -5.3464,-1.85689 -23.311,-10.64172 -25.1015,-12.27481 -0.5821,-0.5309 -4.9477,-4.07837 -9.7014,-7.88327 -4.7537,-3.80489 -8.9606,-7.33196 -9.3486,-7.83793 -0.3881,-0.50597 -2.3291,-3.11028 -4.3134,-5.78737 -1.9843,-2.67708 -4.2367,-5.51545 -5.0054,-6.30749 -0.7686,-0.79204 -1.7452,-2.18505 -2.1701,-3.09559 -0.4249,-0.91053 -1.5299,-3.24302 -2.4556,-5.18329 -2.9882,-6.26325 -3.1652,-7.67288 -3.1652,-25.19671 0,-13.70005 0.064,-15.39461 0.7,-18.406 0.385,-1.82421 0.7025,-3.78049 0.7055,-4.3473 0,-0.5668 0.222,-1.28118 0.4865,-1.5875 0.2644,-0.30631 0.7728,-1.35069 1.1295,-2.32083 0.3568,-0.97014 3.5551,-6.76451 7.1074,-12.87639 5.284,-9.09149 6.9231,-11.61735 9.0128,-13.88842 1.4047,-1.52675 8.1948,-7.49356 15.0891,-13.25957 6.8942,-5.766 13.3318,-11.19142 14.3058,-12.05647 1.5897,-1.41189 15.043,-9.12609 15.9156,-9.12609 0.1954,0 3.4345,-1.25409 7.198,-2.78687 14.0828,-5.73553 22.7281,-7.30086 38.6346,-6.99525 11.3801,0.21865 16.042,0.72935 20.0665,2.19829 1.7463,0.63737 3.7307,1.3518 4.4098,1.58763 7.2839,2.5294 10.4174,4.15011 16.1058,8.33006 2.3048,1.69361 8.517,8.28431 9.5462,10.12783 0.2654,0.47537 0.4333,2.33399 0.441,4.88337 0.015,4.94721 -0.4427,6.28211 -3.2042,9.34448 -1.8762,2.0807 -10.8758,10.45731 -12.8347,11.94634 -1.213,0.92208 -7.3057,2.28634 -10.2106,2.28634 -2.0611,0 -3.495,-0.76452 -7.0755,-3.77253 -1.7747,-1.49095 -2.2804,-2.18518 -3.1299,-4.29696 -0.8704,-2.16356 -1.4287,-2.91194 -3.9595,-5.30751 -2.6687,-2.52616 -3.271,-2.9118 -6.395,-4.09475 -1.8969,-0.71826 -4.4808,-1.78056 -5.742,-2.36065 -5.1334,-2.36116 -5.326,-2.3926 -14.6597,-2.3926 h -8.552 l -0.2013,2.38125 c -0.1107,1.30969 -0.2945,3.96875 -0.4085,5.90903 -0.2562,4.36383 -1.033,10.41279 -1.9933,15.52222 -0.7493,3.98703 -2.2954,10.41256 -2.572,10.68916 -0.085,0.0855 -0.9505,-0.69713 -1.9222,-1.7391 l -1.7668,-1.89451 -0.029,-14.99305 -0.029,-14.99306 -2.2083,5.46806 c -1.2145,3.00743 -2.3174,5.75558 -2.4509,6.10701 -0.2335,0.61494 -0.2828,0.61521 -1.3119,0.007 -0.7335,-0.43331 -1.1886,-1.07461 -1.4491,-2.04227 -0.4179,-1.55181 -1.3519,-5.85758 -1.3616,-6.2769 -0.019,-0.83677 -5.2912,0.92166 -8.8324,2.94609 -0.8694,0.49698 -2.1363,1.11697 -2.8154,1.37774 -2.5444,0.97705 -11.2502,8.94749 -13.6764,12.52131 -2.4003,3.5355 -5.7264,9.26012 -6.2614,10.77629 -0.2776,0.78686 -0.7289,1.85909 -1.0028,2.38274 -0.274,0.52364 -0.8338,2.78866 -1.244,5.03338 -0.6386,3.49393 -0.7467,5.44859 -0.7516,13.58194 0,8.50889 0.075,9.85049 0.7622,12.85204 0.4224,1.84326 1.2187,4.28955 1.7696,5.4362 0.5509,1.14665 1.0017,2.35556 1.0017,2.68646 0,0.3309 0.2972,0.98023 0.6606,1.44296 0.3633,0.46272 1.5719,2.34945 2.6858,4.19271 1.1139,1.84326 2.6876,4.14514 3.4971,5.11528 0.8096,0.97014 1.7582,2.21642 2.1081,2.76952 0.7451,1.17796 9.7014,10.16851 12.7563,12.80525 1.1575,0.99904 3.692,2.63789 5.6323,3.64189 1.9403,1.004 4.0041,2.18809 4.5861,2.63132 1.4555,1.10827 15.0095,6.89093 19.7556,8.42848 4.7142,1.52723 9.4848,2.51534 15.8047,3.2736 4.4236,0.53074 4.9708,0.52938 7.7077,-0.0191 3.9217,-0.78596 5.8493,-1.72166 9.694,-4.70562 3.476,-2.69783 6.0007,-5.73271 9.3383,-11.22568 l 1.9053,-3.13576 0.1007,-12.7882 c 0.088,-11.23342 0.036,-12.78819 -0.4337,-12.78819 -0.294,0 -2.8794,-0.15941 -5.7452,-0.35423 -2.8659,-0.19483 -12.5926,-0.59038 -21.6149,-0.87901 -9.0223,-0.28862 -18.9441,-0.68459 -22.0486,-0.87993 -3.1044,-0.19533 -11.7563,-0.68256 -19.2264,-1.08273 -15.05,-0.80621 -18.3363,-1.30851 -20.228,-3.09182 -2.6932,-2.53886 -2.6751,-5.70471 0.058,-10.1326 1.0997,-1.78163 4.8415,-5.21009 11.1946,-10.25727 3.3842,-2.68858 3.7183,-2.86488 7.2319,-3.81591 l 3.6838,-0.9971 18.1681,0.23119 c 69.1945,0.8805 96.6761,1.48613 107.2197,2.36286 7.2188,0.60028 8.7743,0.82778 9.5794,1.40104 1.2211,0.86946 1.1484,0.87858 2.9669,-0.37252 0.8449,-0.5813 1.9053,-1.19816 2.3566,-1.37078 0.4512,-0.17263 2.2705,-1.35626 4.0428,-2.6303 1.7724,-1.27404 3.626,-2.41771 4.1192,-2.5415 0.4932,-0.12379 1.1612,-0.5173 1.4845,-0.87446 0.7659,-0.84638 0.7452,-1.07653 -1.9092,-21.15938 l -2.1682,-16.40416 -1.6287,-2.82222 c -2.8633,-4.96154 -4.1047,-6.62794 -7.5297,-10.10799 -5.2586,-5.34301 -7.1655,-6.83136 -11.2531,-8.78314 -2.057,-0.98217 -4.1765,-2.20348 -4.7101,-2.71402 -0.9387,-0.89815 -0.9701,-1.04923 -0.9701,-4.65983 0,-4.17954 0.073,-4.38752 3.2739,-9.31223 1.3457,-2.07041 2.7731,-3.60547 5.6587,-6.08541 2.1225,-1.8241 4.0695,-3.31655 4.3267,-3.31655 0.2572,0 2.316,-0.71438 4.5751,-1.5875 3.7573,-1.45217 4.3734,-1.5875 7.2273,-1.5875 2.9307,0 3.5114,0.13741 9.5783,2.26651 3.5522,1.24658 6.9348,2.36983 7.5169,2.49613 0.5821,0.12629 3.2808,1.07986 5.9972,2.11904 2.7164,1.03918 9.3839,3.10719 14.8167,4.59559 5.4328,1.4884 11.624,3.22932 13.7583,3.86871 2.1343,0.63939 4.595,1.27637 5.4681,1.41551 0.8731,0.13914 5.3975,1.09739 10.0541,2.12944 4.6567,1.03204 9.8161,2.0483 11.4653,2.25833 5.6856,0.7241 12.5339,1.86129 16.2278,2.69473 4.9549,1.11797 7.8377,1.48072 15.1694,1.90882 6.0069,0.35074 37.7828,2.98223 40.1791,3.32738 0.6584,0.0948 1.5712,0.52388 2.0285,0.95344 0.7704,0.72382 0.8313,1.05113 0.8313,4.46895 0,3.48391 -0.061,3.79447 -1.102,5.614 -0.6146,1.07433 -3.4004,4.29143 -6.2994,7.27489 l -5.1975,5.34881 -2.1774,35.27777 c -1.1976,19.40278 -2.1729,35.44315 -2.1673,35.64526 0.01,0.20212 -0.8628,0.79571 -1.93,1.31909 l -1.9403,0.9516 v -34.75196 -34.75195 l -1.3693,0.69857 c -0.8131,0.41482 -1.4535,1.0341 -1.5766,1.52459 -0.2147,0.85543 -0.5241,4.82018 -1.4787,18.94898 -0.3184,4.71242 -0.7287,8.4853 -0.9522,8.75451 -0.4525,0.54526 -2.1734,1.48491 -2.7195,1.48491 -0.253,0 -0.3703,-4.96082 -0.3703,-15.65855 v -15.65856 l -1.4993,-0.20236 c -3.1565,-0.42604 -5.7612,-0.61584 -17.9035,-1.30464 -14.6032,-0.82841 -26.7997,-2.0414 -33.5139,-3.33311 -14.3716,-2.76487 -27.4179,-4.6442 -28.0295,-4.03768 -0.5299,0.52549 -0.3761,5.04168 0.8762,25.73101 0.5421,8.95693 0.3276,8.32712 2.9303,8.60307 1.1959,0.1268 9.2388,0.62276 17.873,1.10213 17.3133,0.96123 21.2567,1.2832 26.3507,2.15151 3.0182,0.51447 3.6701,0.76022 5.3188,2.00494 1.0334,0.78023 2.0299,1.70073 2.2144,2.04556 0.1846,0.34483 0.3356,1.77248 0.3356,3.17255 0,2.06154 -0.1843,2.92123 -0.969,4.52111 -1.205,2.45697 -3.242,5.16518 -6.1446,8.16944 -4.0426,4.18421 -5.3736,5.01701 -10.9295,6.83872 -6.0119,1.97123 -6.488,1.99389 -15.9161,0.75779 -4.977,-0.65251 -8.5747,-0.91404 -12.5744,-0.91404 h -5.6028 l -0.1432,23.01875 c -0.079,12.66032 -0.09,23.09037 -0.025,23.17791 0.065,0.0875 2.9303,-0.1181 6.3676,-0.45697 4.6136,-0.45484 35.5314,-2.30639 39.1342,-2.34359 0.2359,-0.002 -0.5234,-1.55866 -1.6873,-3.45827 -1.9965,-3.25817 -2.1757,-3.73854 -3.1631,-8.47965 -1.3733,-6.5942 -1.3494,-8.03925 0.2062,-12.51103 0.6891,-1.98072 1.4896,-3.96327 1.779,-4.40566 0.5305,-0.81109 9.5785,-8.18337 12.5665,-10.23913 0.8862,-0.60976 2.4987,-1.44064 3.5831,-1.8464 1.0845,-0.40576 2.0636,-0.88622 2.1757,-1.06768 0.2615,-0.42306 8.9818,-0.43531 8.9818,-0.0126 0,0.17453 0.5414,1.12188 1.2031,2.10521 0.8669,1.2882 1.4193,2.75236 1.9767,5.23892 0.7324,3.26768 0.981,3.77908 4.6796,9.62466 2.1484,3.39548 5.1803,7.65233 6.7378,9.45967 3.7816,4.38849 10.2477,9.46 22.7972,17.88027 9.5532,6.40986 10.3003,6.8393 14.9931,8.61837 14.9038,5.65013 21.9732,8.80425 24.6062,10.97844 l 1.3229,1.09239 v 3.97833 c 0,3.81429 -0.041,4.03507 -1.0034,5.35418 -1.144,1.56864 -4.6354,4.91307 -9.8198,9.40639 -2.6758,2.31917 -4.2055,3.35488 -6.1219,4.14514 -2.5086,1.03447 -2.6682,1.05348 -8.841,1.05348 -6.0335,0 -6.482,-0.0499 -11.1522,-1.24123 -2.6762,-0.68269 -6.0565,-1.63135 -7.5117,-2.10814 -3.0993,-1.01549 -8.9619,-2.27965 -21.8722,-4.71631 -18.5882,-3.50831 -19.0759,-3.58233 -20.8153,-3.15897 -0.8723,0.21231 -1.7178,0.50377 -1.8788,0.64768 -0.1611,0.14391 -0.7552,3.89229 -1.3203,8.32973 -1.3946,10.94977 -1.9954,13.3449 -4.4473,17.72928 l -1.2994,2.32367 -0.6515,-4.40494 c -0.3583,-2.42271 -0.8062,-5.51618 -0.9953,-6.87438 -0.1891,-1.35819 -0.5727,-3.66007 -0.8524,-5.11527 -0.2797,-1.45521 -0.7784,-5.26521 -1.1082,-8.46667 -0.7676,-7.45187 -1.1919,-8.0761 -4.737,-6.96966 l -1.4056,0.43867 v 26.59688 26.59688 l -1.3128,4.36505 c -0.722,2.40078 -1.4761,4.31672 -1.6757,4.25764 -0.1996,-0.0591 -0.7296,-0.83921 -1.1778,-1.73361 -1.5567,-3.10629 -3.5951,-21.97619 -4.4702,-41.38102 -0.2887,-6.40291 -0.7163,-13.90385 -0.9503,-16.66875 l -0.4254,-5.02708 h -21.769 -21.769 l -1.5353,0.87769 c -0.8444,0.48274 -1.7588,0.87961 -2.032,0.88195 -0.2732,0.002 -2.0658,0.96845 -3.9835,2.14693 -1.9177,1.17847 -4.5517,2.51631 -5.8533,2.97297 -1.3016,0.45665 -3.2397,1.18723 -4.3068,1.62351 -2.7312,1.11657 -7.2735,1.17044 -8.7054,0.10324 -0.9443,-0.7038 -1.0017,-0.90521 -1.1058,-3.88056 -0.112,-3.19847 0.6469,-8.35382 2.0457,-13.89795 1.7786,-7.04902 1.7683,-6.84358 1.7683,-35.07402 v -26.52941 l -1.0901,-0.80592 c -1.2228,-0.90407 -0.8965,-0.91489 -8.6113,0.28548 -3.8705,0.60222 -6.2958,0.75613 -11.2115,0.71148 l -6.2726,-0.057 -1.1978,1.23332 c -1.3956,1.43701 -6.8021,4.53361 -9.6702,5.53859 -1.0927,0.38291 -4.3305,1.42552 -7.1951,2.31692 l -5.2082,1.62072 -1.23,2.59187 c -1.5403,3.24589 -1.614,5.57374 -0.3357,10.60519 0.4918,1.93583 1.9328,8.67268 3.2022,14.97079 1.2694,6.2981 2.4752,11.76342 2.6794,12.14516 0.2043,0.38173 0.5925,1.64136 0.8626,2.79917 0.2701,1.15782 1.3592,4.42375 2.4203,7.25762 1.7016,4.54485 2.6338,7.55801 5.141,16.61778 0.4945,1.78681 0.6391,3.65654 0.655,8.469 0.011,3.39677 -0.1345,6.71556 -0.3236,7.37509 -0.1892,0.65954 -1.0623,2.11352 -1.9403,3.23108 -0.878,1.11755 -1.5998,2.16438 -1.6039,2.32629 -0.016,0.62625 -9.1822,6.91975 -12.8688,8.83585 l -3.8806,2.01688 -3.9929,0.13953 c -5.8962,0.20603 -5.2715,1.04506 -10.4601,-14.04927 -0.4336,-1.26118 -1.1899,-3.08681 -1.6809,-4.05695 -0.4909,-0.97013 -1.1444,-2.98687 -1.4522,-4.48162 -0.3078,-1.49475 -1.5893,-6.37646 -2.8479,-10.84824 -1.2586,-4.47178 -2.3878,-8.72567 -2.5093,-9.4531 -0.1742,-1.04248 -1.7409,-5.4417 -2.1483,-6.03235 -0.047,-0.068 -4.3436,2.72426 -9.5482,6.20505 -6.1268,4.09762 -10.1458,6.55099 -11.4004,6.95926 -1.0657,0.34681 -4.9578,1.87222 -8.6493,3.38981 -5.7818,2.37696 -11.914,4.39946 -15.4451,5.09408 -0.8356,0.16438 -0.9507,0.31686 -0.7372,0.97678 0.1391,0.4301 0.2302,2.44888 0.2024,4.48617 -0.041,3.01799 -0.3026,4.7039 -1.4113,9.10099 l -1.3607,5.39683 -1.2081,-1.33988 c -1.0095,-1.11962 -1.346,-1.94884 -2.0471,-5.04405 -0.4615,-2.0373 -1.2132,-5.24106 -1.6705,-7.11949 -0.4573,-1.87843 -0.8315,-3.73222 -0.8315,-4.11953 0,-1.12288 -1.6374,-2.16654 -3.399,-2.16654 -1.4522,0 -1.5399,0.0564 -1.5399,0.99009 0,0.54455 -0.2344,4.55299 -0.521,8.90764 -0.2865,4.35465 -0.6865,10.83185 -0.8889,14.39378 -0.2024,3.56193 -0.5221,7.16368 -0.7104,8.00387 -0.1883,0.8402 -0.7496,4.81465 -1.2473,8.83212 -0.4978,4.01746 -1.3522,9.04117 -1.8988,11.16379 -0.8962,3.48001 -1.1031,3.92577 -2.1056,4.5354 -0.6114,0.37185 -1.1811,0.67609 -1.266,0.67609 -0.085,0 -0.3101,-0.59531 -0.5005,-1.32292 z m -126.1931,-15.25764 c 0.086,-6.3059 0.2458,-11.7034 0.3543,-11.99444 0.1779,-0.47721 4.2868,-27.81578 4.6924,-31.22083 0.1229,-1.03238 -0.074,-1.93562 -0.7348,-3.36534 -0.744,-1.61035 -1.1828,-2.09022 -2.4936,-2.72703 l -1.5906,-0.77281 -0.1703,0.78676 c -0.094,0.43271 -1.1306,7.69237 -2.3044,16.13258 -1.1737,8.44021 -2.224,15.78601 -2.3339,16.324 -0.1393,0.68176 -0.6146,1.18974 -1.5684,1.67636 -1.2922,0.65921 -1.3862,0.66368 -1.6854,0.0802 -1.1948,-2.33011 -1.1614,-12.04145 0.102,-29.71893 1.1121,-15.55892 1.1461,-19.24118 0.1893,-20.46437 -0.3794,-0.48507 -0.6934,-1.08685 -0.6977,-1.3373 0,-0.25045 -1.4107,-2.3142 -3.1254,-4.58611 -1.7147,-2.27192 -4.7045,-6.43263 -6.6441,-9.24603 -1.9395,-2.8134 -4.053,-5.85987 -4.6966,-6.76993 -0.6435,-0.91005 -2.8986,-3.18694 -5.0113,-5.05976 -2.1126,-1.87281 -6.6368,-6.48874 -10.0538,-10.25761 -3.417,-3.76887 -6.295,-6.77028 -6.3955,-6.6698 -0.1808,0.18087 -0.4395,1.76224 -1.1257,6.88259 -0.2516,1.87731 -0.1907,7.8591 0.2103,20.6375 0.5291,16.86314 0.5028,22.64312 -0.1247,27.34257 -0.2322,1.73883 -0.4788,2.17278 -2.3758,4.1797 -2.6595,2.81381 -4.4768,4.21674 -12.1708,9.39571 -3.692,2.48514 -6.9929,4.43501 -8.2117,4.85072 -1.8791,0.64091 -2.3604,0.66366 -6.17,0.29167 -3.6295,-0.3544 -4.244,-0.51087 -5.054,-1.28682 -0.8812,-0.84431 -0.9314,-1.09711 -1.1353,-5.7176 -0.1173,-2.65882 -0.4581,-5.70734 -0.7572,-6.7745 -0.4639,-1.6549 -0.5109,-3.75626 -0.3194,-14.2875 0.1667,-9.17325 0.1152,-12.70996 -0.2003,-13.75833 -0.2742,-0.91113 -0.4894,-5.47348 -0.6073,-12.87639 -0.1674,-10.51633 -0.2986,-12.42882 -1.5852,-23.10694 -0.7714,-6.40292 -1.6325,-13.75494 -1.9134,-16.33783 -1.1199,-10.29791 -2.6287,-19.10461 -5.3902,-31.46356 -1.4607,-6.53691 -1.4816,-6.85175 -0.4643,-6.99582 1.1957,-0.16933 1.8514,-2.06578 2.0864,-6.03449 l 0.1997,-3.37386 2.4392,-2.26129 c 3.3643,-3.11902 7.9463,-6.22241 10.7392,-7.27364 1.287,-0.48443 2.8318,-1.17807 3.4329,-1.54142 1.5235,-0.92096 5.2715,-1.47068 7.4429,-1.09166 0.9701,0.16934 2.4048,0.31736 3.1882,0.32893 1.2236,0.0181 1.6533,0.25729 3.0482,1.69672 1.8565,1.91583 4.3683,5.94944 6.2945,10.10801 2.4222,5.22938 6.2007,9.44719 33.3302,37.20592 6.4029,6.55142 15.7691,16.20513 20.8139,21.45269 5.6284,5.85473 9.2723,9.38942 9.4314,9.14866 0.4566,-0.69124 0.2902,-2.70662 -0.8041,-9.73829 -0.5885,-3.78206 -1.3012,-9.83161 -1.5836,-13.44344 -1.622,-20.74189 -4.1928,-48.14345 -5.146,-54.84914 l -0.405,-2.84963 -2.1091,-0.43562 c -2.6108,-0.53925 -5.8945,-1.96003 -5.9558,-2.57697 -0.025,-0.25321 -0.01,-1.80976 0.036,-3.459 0.079,-2.88895 0.1379,-3.08246 1.6079,-5.29166 0.8392,-1.26118 2.2515,-3.13946 3.1386,-4.17395 0.8871,-1.03449 1.6129,-1.99293 1.6129,-2.12988 0,-0.31433 4.0735,-4.5246 5.4754,-5.65929 3.0658,-2.48135 9.9243,-6.15832 15.5047,-8.31234 l 4.2232,-1.63014 4.191,0.24514 4.191,0.24514 1.5519,1.97641 c 0.8583,1.09303 1.6462,2.52828 1.7629,3.21113 0.116,0.6791 0.4139,1.95156 0.6619,2.82769 0.7706,2.72257 2.0941,18.74168 3.5555,43.03342 0.2977,4.94771 0.7581,10.26583 1.0232,11.81806 0.2651,1.55222 0.6639,5.20347 0.8862,8.11389 0.4287,5.61386 0.8736,8.91411 4.2559,31.57361 2.0147,13.49755 14.0004,89.49939 15.5497,98.60139 0.7164,4.20858 0.6921,6.89908 -0.081,8.93153 -0.1806,0.47495 -1.2975,1.9934 -2.4822,3.37434 -1.6898,1.96994 -3.3787,3.33168 -7.8402,6.32153 -7.0805,4.74502 -7.3076,4.86264 -12.0146,6.22173 -3.1732,0.91622 -4.2075,1.07282 -5.8209,0.88136 -1.8313,-0.21734 -2.0986,-0.377 -4.0138,-2.39833 -3.7367,-3.94378 -5.3571,-6.50876 -11.3527,-17.97098 -6.0476,-11.56148 -7.7892,-14.6831 -8.45,-15.14537 -0.2038,-0.14254 -1.0345,-0.26161 -1.846,-0.26458 -1.104,-0.004 -1.5212,0.15005 -1.6569,0.61196 -0.1,0.33955 -1.4829,9.26924 -3.0737,19.84375 l -2.8923,19.22639 -1.3709,2.29306 -1.3708,2.29305 z"
         id="path16" /><g
         id="g22"
         transform="translate(955.18489,-79.273843)"><path
           style="fill:#fbce02;fill-opacity:1;stroke:#fbce02;stroke-width:4.582;stroke-dasharray:none;stroke-opacity:1"
           d="m 9437.593,2631.4056 c -4.7015,-6.4047 -6.5217,-13.843 -10.8599,-44.3787 -5.6257,-39.5987 -5.6019,-39.0949 -10.3977,-220.0471 -2.9479,-111.2273 -4.0973,-141.1699 -5.8828,-153.2471 -0.5192,-3.5119 -0.9529,-10.3878 -0.9638,-15.2797 -0.018,-8.135 0.2205,-9.2674 2.7939,-13.2618 1.5475,-2.402 6.7728,-8.2133 11.6117,-12.914 7.6347,-7.4164 10.2938,-9.277 20.11,-14.0703 6.2215,-3.038 13.1201,-5.7662 15.3302,-6.0627 3.788,-0.508 4.2958,-0.2614 8.8621,4.3049 5.1325,5.1325 8.4581,12.2083 10.0708,21.4277 1.045,5.9737 2.4006,43.3342 4.4556,122.7941 0.8524,32.958 1.8866,60.271 2.2984,60.6956 0.4117,0.4246 8.9148,-4.7094 18.8957,-11.4089 30.3552,-20.3752 36.9081,-22.6446 63.7563,-22.0795 16.046,0.3377 17.5031,0.5266 22.7204,2.9446 26.3265,12.2014 44.2824,37.1497 63.5405,88.2843 2.734,7.2596 6.0637,15.8516 7.3993,19.0934 1.3355,3.2417 4.6949,13.6301 7.4651,23.0853 2.7703,9.4551 10.5728,34.2104 17.3389,55.0117 6.9125,21.2513 12.5375,40.2432 12.8394,43.3504 0.4822,4.9607 0.1556,6.3255 -3.1728,13.2618 -5.3224,11.0917 -12.8609,18.2276 -26.1423,24.7462 -12.9121,6.3373 -18.9176,7.8381 -24.5778,6.1423 -5.6125,-1.6815 -8.4974,-3.7226 -10.3643,-7.3329 -2.4243,-4.6881 -8.3683,-22.7391 -18.4732,-56.1001 -14.5604,-48.0707 -32.8094,-99.3906 -39.8352,-112.0249 -6.6706,-11.9956 -17.288,-25.9957 -19.7146,-25.9957 -0.4715,0 -0.8707,10.2778 -0.8871,22.8397 -0.019,14.5209 -0.3618,22.272 -0.9413,21.2811 -2.2149,-3.7875 -4.9935,-17.4747 -6.8627,-33.8061 -2.5761,-22.5073 -3.6713,-25.0388 -12.9531,-29.94 l -6.5428,-3.4549 -3.7719,3.0357 c -2.0745,1.6696 -4.7678,4.4987 -5.9851,6.2868 -3.0624,4.4985 -6.1074,15.281 -7.1721,25.3971 -0.4919,4.6743 -0.9301,42.5374 -0.9737,84.14 -0.044,41.6027 -0.4215,79.2145 -0.8397,83.5819 -1.1369,11.8709 -5.9677,21.0235 -16.8343,31.8947 -9.1517,9.1557 -18.9157,16.5848 -25.6365,19.506 -2.8528,1.2399 -7.9385,2.0934 -15.1857,2.5484 l -10.8965,0.6841 z"
           id="path17"
           transform="scale(0.26458333)" /><path
           style="fill:#fbce02;fill-opacity:1;stroke:#fbce02;stroke-width:4.582;stroke-dasharray:none;stroke-opacity:1"
           d="m 9879.2392,2816.4045 c -3.9393,-0.7138 -7.8537,-1.8718 -8.6988,-2.5731 -2.3244,-1.9291 -1.3792,-11.8529 1.4635,-15.3662 4.9784,-6.153 6.0036,-9.8743 6.0179,-21.8442 0.01,-6.2134 -0.4065,-15.0546 -0.92,-19.6471 -2.1048,-18.827 -3.9861,-41.9132 -4.963,-60.9058 -0.5697,-11.0761 -1.8807,-26.7692 -2.9132,-34.8736 -1.7608,-13.8198 -4.2327,-41.4949 -7.2156,-80.7846 -0.707,-9.3124 -1.545,-17.1911 -1.8622,-17.5083 -0.5668,-0.5668 -10.8983,5.0132 -23.0267,12.4366 -10.266,6.2835 -17.7406,9.7145 -31.1955,14.3195 -13.6713,4.679 -18.6259,7.5874 -19.6108,11.5117 -0.3422,1.3633 -2.4433,3.646 -4.7824,5.196 -5.9677,3.9542 -8.4419,9.728 -16.3387,38.1291 -3.7557,13.5074 -8.0087,27.8743 -9.4512,31.9265 -3.2731,9.1948 -15.3743,34.2542 -15.8688,32.8614 -0.2926,-0.8242 8.8635,-53.8454 18.9596,-109.7905 l 1.562,-8.6555 -13.2362,-13.448 c -24.2434,-24.6314 -30.1595,-37.4322 -41.4005,-89.5792 -5.167,-23.9693 -7.6119,-37.0241 -10.9266,-58.3421 -0.8308,-5.3436 -2.605,-12.4512 -3.9426,-15.7947 -2.8221,-7.054 -2.9002,-8.7613 -0.9451,-20.6603 0.7989,-4.8626 1.4543,-10.9738 1.4564,-13.5803 0,-4.4204 0.3835,-5.1404 5.6522,-10.7075 12.7785,-13.5021 26.3705,-22.2597 37.8373,-24.3795 3.0759,-0.5686 7.995,-1.8604 10.9313,-2.8706 5.2882,-1.8194 5.3778,-1.8175 9.4619,0.2032 7.5914,3.7559 8.0403,5.4294 9.819,36.5994 2.4468,42.8812 9.1318,79.3122 21.4789,117.0534 5.0516,15.4412 6.4304,18.0013 14.5056,26.9353 3.6995,4.0929 7.6245,8.6895 8.7223,10.2146 1.9087,2.6517 2.2065,2.7344 6.8128,1.8907 l 4.8169,-0.8822 4.4842,-10.3433 c 2.4663,-5.6888 6.0841,-13.2038 8.0395,-16.7 1.9554,-3.4962 4.5658,-9.4511 5.801,-13.2332 1.2351,-3.782 3.7552,-10.4129 5.6002,-14.7353 4.2599,-9.9799 17.0658,-47.0024 20.9104,-60.4528 3.2075,-11.2218 3.3544,-13.5224 5.8952,-92.3031 1.0587,-32.8242 1.9078,-39.9236 6.7273,-56.244 1.6347,-5.5356 4.3286,-16.6957 5.9865,-24.8001 4.5094,-22.0435 6.3265,-27.4023 10.8132,-31.889 4.5455,-4.5455 20.0661,-13.866 30.912,-18.5633 5.3936,-2.3359 9.7744,-3.5051 14.2441,-3.8016 5.9007,-0.3914 6.8555,-0.1701 11.1211,2.578 l 4.6661,3.0062 v 18.293 c 0,10.0611 -0.485,25.7947 -1.0779,34.9633 -0.5928,9.1687 -0.8209,16.9273 -0.5069,17.2414 0.3141,0.314 5.9933,-3.014 12.6206,-7.3957 15.4806,-10.2351 17.816,-11.1694 29.3772,-11.7517 l 9.4693,-0.4769 11.253,9.704 c 20.726,17.871 33.83,26.2779 76.455,49.0472 46.585,24.8853 70.694,39.7105 87.779,53.9778 4.278,3.5723 8.698,6.9853 9.824,7.5844 3.872,2.0621 11.122,12.948 18.523,27.8121 7.762,15.5922 9.023,19.9329 8.834,30.4238 -0.21,11.6758 -2.892,34.9676 -4.808,41.75 -3.456,12.2328 -16.4,31.5363 -27.583,41.1327 -14.251,12.2299 -21.026,17.3506 -29.592,22.3649 -14.979,8.7697 -16.132,9.9036 -19.711,19.3873 -1.72,4.5568 -4.498,10.1779 -6.174,12.4912 l -3.047,4.2059 -1.833,-2.2638 c -1.008,-1.2451 -2.523,-4.753 -3.367,-7.7954 -0.844,-3.0424 -1.733,-6.1408 -1.976,-6.8854 -0.619,-1.9 -9.224,-0.8596 -10.808,1.3069 -0.654,0.8944 -1.93,6.7965 -2.836,13.1159 -2.749,19.1771 -4.341,27.0265 -5.651,27.8582 -0.687,0.436 -2.455,0.7995 -3.928,0.8077 -4.636,0.026 -5.592,-2.9054 -6.852,-21.0197 -0.628,-9.0244 -1.614,-17.0397 -2.191,-17.8118 -1.128,-1.5098 -22.758,-6.3417 -28.387,-6.3417 -2.326,0 -3.605,0.5416 -4.06,1.7192 -1.066,2.7578 -3.2,28.2356 -5.938,70.8962 l -2.549,39.7066 -2.913,3.6788 c -6.811,8.5993 -21.727,20.0041 -32.783,25.0657 -9.945,4.5529 -27.8688,5.6485 -30.6301,1.8723 -1.6462,-2.2514 -2.8489,-11.7384 -7.2235,-56.9829 -9.2989,-96.173 -16.4847,-189.7063 -17.6618,-229.8946 -1.2627,-43.1051 -3.7826,-71.6677 -7.0206,-79.5746 -1.5292,-3.7343 -1.3035,-5.0829 -4.7731,28.5162 -3.968,38.4257 -5.4875,56.9434 -8.424,102.6559 -3.7279,58.035 -4.0909,85.0602 -1.57,116.9001 1.1336,14.3178 2.728,36.8628 3.543,50.1 0.815,13.2372 1.7359,26.72 2.0464,29.9617 1.457,15.2123 4.5862,38.5255 6.7247,50.1 1.2977,7.0239 2.8394,18.1471 3.4262,24.7183 0.5867,6.5713 1.9902,17.6227 3.1189,24.5589 2.2841,14.0355 1.9985,17.4928 -2.5489,30.8628 -4.9814,14.646 -7.855,17.3346 -29.3784,27.4871 -16.8035,7.9262 -26.1196,9.3095 -42.5926,6.3241 z m 267.4898,-325.8938 c 4.771,-10.4621 5.891,-29.4025 2.509,-42.4004 -3.703,-14.2277 -12.29,-27.5884 -26.373,-41.0325 -8.114,-7.7459 -12.944,-10.9773 -15.607,-10.4412 -0.921,0.1854 -2.786,3.8677 -4.758,9.3958 -3.757,10.5324 -6.411,15.468 -8.315,15.468 -0.742,0 -2.453,-2.2103 -3.803,-4.9118 -2.163,-4.3296 -2.504,-6.4836 -2.872,-18.1735 -0.286,-9.0928 -0.853,-13.9512 -1.802,-15.4547 -0.762,-1.206 -4.806,-4.2129 -8.987,-6.6819 -11.269,-6.6546 -36.416,-19.1223 -38.569,-19.1223 -2.973,0 -4.095,3.4234 -3.646,11.127 0.506,8.6986 8.126,67.8562 10.004,77.6718 2.279,11.9121 3.16,13.2403 13.425,20.2275 5.071,3.4519 12.5,8.6841 16.51,11.627 8.557,6.2808 19.206,12.1034 26.109,14.2769 5.65,1.7787 20.242,3.2493 34.192,3.4459 l 9.632,0.1357 z"
           id="path18"
           transform="scale(0.26458333)" /><path
           style="fill:#fbce02;fill-opacity:1;stroke:#fbce02;stroke-width:4.582;stroke-dasharray:none;stroke-opacity:1"
           d="m 10450.518,2696.4778 c -1.131,-1.1315 -0.874,-13.0529 0.329,-15.3018 1.1,-2.0553 0.827,-4.9813 -2.533,-27.1355 -0.843,-5.5555 -2.128,-16.9713 -2.856,-25.3684 -0.728,-8.3971 -1.711,-15.625 -2.184,-16.0621 -0.473,-0.4371 -3.004,-1.101 -5.624,-1.4754 -4.673,-0.6679 -4.839,-0.6004 -8.841,3.5912 -2.243,2.3496 -5.463,6.8688 -7.156,10.0427 l -3.079,5.7707 -0.639,-7.2665 c -0.351,-3.9965 -0.886,-9.3638 -1.188,-11.9274 l -0.549,-4.6609 -11.451,-3.4983 c -36.486,-11.1464 -38.223,-11.8311 -59.109,-23.3037 -11.069,-6.0798 -23.649,-13.4799 -27.957,-16.4446 -7.814,-5.3781 -24.66,-21.4928 -36.989,-35.385 -6.274,-7.0692 -6.673,-7.8367 -11.027,-21.197 -6.161,-18.9077 -6.377,-21.7359 -2.768,-36.2378 1.614,-6.4835 3.243,-12.5618 3.62,-13.5073 0.89,-2.2294 3.772,-2.1707 11.44,0.2329 7.823,2.4523 7.7,2.4595 7.7,-0.4559 0,-3.03 -1.538,-4.0115 -15.304,-9.7625 -14.263,-5.9587 -24.535,-12.7845 -34.848,-23.156 -10.552,-10.6115 -15.029,-19.3157 -23.485,-45.6526 -7.574,-23.589 -9.868,-34.7348 -9.846,-47.8382 0.03,-19.8408 4.488,-31.8886 16.089,-43.5184 15.015,-15.0515 33.008,-20.5108 67.394,-20.4476 42.53,0.078 90.145,12.4801 139.003,36.2045 56.786,27.5738 100.796,70.0218 108.005,104.1709 l 0.648,3.0698 -4.023,-1.0736 c -5.306,-1.4164 -6.507,-0.5735 -11.103,7.7955 -4.718,8.5909 -5.105,8.9513 -16.826,15.6849 l -9.746,5.5992 -7.936,-0.6396 c -17.667,-1.4239 -16.975,-1.171 -19.152,-6.9918 -1.063,-2.8411 -2.642,-7.9014 -3.508,-11.245 l -1.576,-6.0794 3.071,-4.5949 c 2.805,-4.1984 3.04,-5.156 2.722,-11.0974 -0.481,-8.9749 -4.123,-14.8447 -12.116,-19.5298 -9.213,-5.4004 -46.257,-43.8183 -50.479,-52.3515 -1.023,-2.068 -2.126,-3.3285 -2.452,-2.8012 -1.453,2.3497 -18.444,77.5355 -19.864,87.8941 l -0.597,4.3601 6.849,4.0694 c 3.768,2.2381 13.921,7.3673 22.563,11.398 13.737,6.4067 18.544,8.0621 38.211,13.1585 25.528,6.615 29.001,7.7527 36.656,12.0079 3.019,1.6779 12.12,6.573 20.224,10.878 14.687,7.8017 33.855,19.8942 47.33,29.8598 11.738,8.6801 35.895,29.3992 40.178,34.4591 11.609,13.7135 13.864,19.2864 10.851,26.8158 -0.879,2.1955 -1.597,5.2224 -1.597,6.7266 0,6.5061 -9.807,16.9192 -26.524,28.1631 -12.541,8.4354 -17.648,10.6189 -35.441,15.1542 -22.877,5.8311 -32.45,6.9528 -59.482,6.9702 -12.898,0.01 -23.978,0.3504 -24.623,0.7604 -0.795,0.5053 -1.995,12.6021 -3.728,37.56 -2.618,37.7032 -3.389,44.8982 -4.677,43.6096 z m 66.429,-132.3236 c 1.631,-1.192 1.613,-1.4032 -0.326,-3.8685 -4.765,-6.0574 -32.491,-26.4328 -57.528,-42.2755 -20.324,-12.8607 -57.549,-33.6324 -71.514,-39.9046 -6.386,-2.8683 -19.359,-8.9313 -28.828,-13.4734 -9.47,-4.5421 -17.583,-8.2583 -18.029,-8.2583 -1.48,0 -3.099,6.8128 -2.394,10.0725 1.78,8.2357 9.43,19.1818 26.767,38.3003 7.785,8.5857 13.134,13.523 17.939,16.5583 3.765,2.3786 10.488,6.6798 14.939,9.5581 14.445,9.3406 38.474,19.6129 55.737,23.8274 11.27,2.7514 53.655,10.5199 58.017,10.6335 1.923,0.05 4.272,-0.4763 5.22,-1.1698 z m -143.404,-147.8854 c 0.275,-0.446 1.621,-7.4084 2.991,-15.472 1.369,-8.0636 4.271,-23.9444 6.448,-35.2906 7.713,-40.1996 8.339,-44.6371 6.547,-46.429 -1.456,-1.4554 -1.702,-1.297 -3.067,1.9684 -0.816,1.9531 -2.427,7.009 -3.58,11.2353 -3.159,11.5765 -5.838,15.836 -7.15,11.368 -2.092,-7.1223 -1.856,-8.7887 1.82,-12.8582 4.561,-5.0484 3.833,-6.7557 -4.642,-10.889 -8.509,-4.1498 -18.52,-6.003 -32.619,-6.0387 -23.821,-0.06 -38.473,5.2821 -42.936,15.6556 -2.548,5.9202 -6.71,21.446 -6.713,25.0413 0,3.6123 5.192,14.5009 8.972,18.8068 3.38,3.8496 26.714,18.7909 61.986,39.6919 3.324,1.9698 7.251,3.4005 10.763,3.9206 0.373,0.055 0.904,-0.2643 1.18,-0.7104 z"
           id="path19"
           transform="scale(0.26458333)" /><path
           style="fill:#fbce02;fill-opacity:1;stroke:#fbce02;stroke-width:4.582;stroke-dasharray:none;stroke-opacity:1"
           d="m 10773.052,2697.7872 c -1.579,-7.79 -2.882,-21.3783 -4.5,-46.9074 -0.805,-12.6969 -1.465,-23.5052 -1.467,-24.0185 -0.01,-2.909 -2.097,2.0093 -3.936,9.2832 -2.267,8.9716 -5.043,16.0598 -6.689,17.0769 -0.561,0.3467 -2.158,0.1118 -3.549,-0.5221 l -2.53,-1.1525 v -21.7475 -21.7475 l -11.051,-2.2303 c -17.585,-3.5488 -43.406,-10.4192 -56.731,-15.0946 -18.683,-6.5553 -46.305,-24.4255 -61.889,-40.0381 -19.321,-19.3578 -34.846,-44.7122 -40.765,-66.5752 -4.574,-16.8986 -3.985,-59.9701 1.037,-75.8704 4.992,-15.7997 12.623,-29.6168 26.232,-47.4947 13.644,-17.9232 24.123,-27.125 44.219,-38.8278 17.503,-10.1933 37.626,-18.43 58.18,-23.8144 8.366,-2.1915 10.426,-2.3137 38.312,-2.2708 33.937,0.052 43.523,1.0687 67.92,7.2024 17.816,4.4792 43.514,13.0739 57.541,19.2448 12.539,5.5162 20.792,11.4411 32.452,23.2964 l 9.578,9.7382 v -14.5632 -14.5631 l 6.714,-8.3395 c 8.983,-11.1601 16.208,-17.5866 27.028,-24.044 13.272,-7.9197 25.512,-9.4244 31.893,-3.9204 2.603,2.2458 2.636,2.4266 2.417,13.4066 -0.122,6.1216 -1.15,19.5293 -2.284,29.7949 -1.842,16.6661 -2.12,26.3959 -2.594,90.8676 l -0.531,72.203 4.643,12.7706 c 2.553,7.0238 5.319,14.0839 6.145,15.6891 1.884,3.6587 11.011,13.3465 17.28,18.3426 4.375,3.487 5.244,3.7889 10.903,3.7889 6.025,0 6.241,-0.093 10.811,-4.6662 7.384,-7.3896 20.969,-28.4213 30.144,-46.6688 7.032,-13.9875 7.011,-25.0155 -0.111,-56.2327 -2.095,-9.185 -4.272,-19.3523 -4.836,-22.5941 -1.876,-10.7704 -3.039,-30.9756 -3.039,-52.7671 v -21.5377 l 2.842,-4.1065 c 5.73,-8.2807 29.154,-28.8198 36.264,-31.7986 1.788,-0.7489 7.246,-1.4536 12.13,-1.566 8.783,-0.2021 8.906,-0.1722 11.253,2.7387 10.898,13.5155 18.377,33.5502 24.566,65.8137 3.549,18.5001 3.562,33.1603 0.05,56.1596 l -2.574,16.8655 6.252,18.4992 c 15.994,47.3222 31.954,85.3043 42.033,100.0345 1.848,2.7015 4.549,6.6312 6.001,8.7327 2.241,3.2425 2.641,4.8459 2.641,10.5918 0,11.1935 -2.692,15.3138 -18.652,28.5536 -12.128,10.0604 -19.415,13.6737 -28.777,14.2685 -10.289,0.6537 -14.86,-0.8498 -18.082,-5.9485 -6.32,-10 -9.837,-17.1848 -28.71,-58.654 -8.953,-19.6732 -8.938,-19.647 -11.494,-19.647 -1.527,0 -6.014,3.541 -13.844,10.9247 -14.456,13.6316 -28.459,24.9635 -40.583,32.8415 -5.143,3.3418 -9.963,6.8132 -10.711,7.7142 -0.954,1.1504 -1.883,8.8692 -3.119,25.9157 -2.182,30.0969 -2.564,33.0265 -5.028,38.5215 l -1.982,4.4206 -1.416,-3.3262 c -0.78,-1.8294 -3.472,-15.4227 -5.984,-30.2073 l -4.568,-26.8812 -4.953,0.022 c -2.724,0.012 -6.784,0.8529 -9.022,1.869 -3.498,1.5882 -4.359,2.6245 -6.14,7.383 -1.139,3.0445 -2.071,5.9828 -2.071,6.5297 0,2.0882 -3.061,6.7908 -4.42,6.7908 -1.955,0 -4.089,-4.4572 -4.946,-10.3276 -1.406,-9.638 -2.687,-11.4282 -13.011,-18.188 -18.43,-12.0668 -27.447,-23.7921 -34.438,-44.7837 -5.927,-17.7942 -6.055,-19.5568 -6.055,-82.8524 0,-31.7347 -0.293,-61.8167 -0.65,-66.8488 l -0.649,-9.1494 -1.88,2.3676 c -6.458,8.1321 -20.661,23.2093 -24.818,26.3459 -7.266,5.4819 -24.718,15.4344 -33.726,19.2335 -14.977,6.3165 -39.529,11.3976 -64.019,13.2487 -22.309,1.6863 -106.209,0.7278 -132.502,-1.5137 l -7.253,-0.6183 0.652,2.7975 c 1.985,8.5138 15.926,31.3564 24.939,40.8638 7.064,7.4506 24.501,21.7783 35.537,29.1983 11.802,7.9358 21.092,12.4018 35.893,17.2551 30.767,10.0888 60.92,12.5661 80.478,6.6118 9.582,-2.9172 9.704,-3.2588 10.356,-29.0039 l 0.553,-21.8511 3.191,-6.5493 c 2.328,-4.7793 5.088,-8.3058 10.21,-13.0483 19.789,-18.3216 38.487,-24.9925 46.117,-16.4532 4.173,4.6699 6.826,14.5766 7.474,27.8993 0.973,20.0375 -2.96,35.3634 -12.915,50.3241 -9.656,14.5129 -38.951,40.4021 -55.546,49.0894 -3.529,1.8471 -11.04,4.9629 -16.692,6.924 -5.652,1.9612 -14.977,5.5496 -20.722,7.9744 l -10.444,4.4087 -0.623,16.9184 c -1.36,36.9215 -7.374,77.3331 -11.51,77.3331 -0.443,0 -1.277,-2.3208 -1.851,-5.1573 z m 66.723,-299.8069 c 3.512,-0.9682 6.744,-2.0896 7.183,-2.492 0.833,-0.7636 -11.186,-11.1481 -19.174,-16.5669 -11.527,-7.8189 -31.037,-14.9574 -64.69,-23.6683 l -19.213,-4.9733 h -31.508 -31.508 l -10.029,4.8056 c -8.882,4.2561 -10.508,5.4458 -14.215,10.4019 -5.913,7.9055 -12.315,18.8339 -12.979,22.1557 -0.708,3.5357 -0.931,3.483 20.783,4.8882 16.796,1.0869 19.881,1.4376 38.803,4.4106 17.54,2.7559 30.235,3.2273 81.044,3.0095 43.772,-0.1876 49.813,-0.4021 55.503,-1.971 z"
           id="path20"
           transform="scale(0.26458333)" /><path
           style="fill:#fbce02;fill-opacity:1;stroke:#fbce02;stroke-width:4.283;stroke-dasharray:none;stroke-opacity:1"
           d="m 11407.96,2696.636 c -0.354,-0.9229 -0.337,-6.6678 0.04,-12.7664 0.569,-9.2411 0.268,-13.9356 -1.807,-28.1788 -1.963,-13.467 -4.511,-37.9104 -4.511,-43.2654 0,-0.4619 -2.593,-0.8397 -5.762,-0.8397 -7.088,0 -9.246,1.5068 -15.078,10.5307 l -4.21,6.5135 -1.473,-10.5668 c -1.113,-7.9801 -1.892,-10.798 -3.18,-11.511 -0.939,-0.5192 -11.106,-3.8047 -22.595,-7.301 -21.613,-6.5778 -27.369,-9.0416 -49.999,-21.4041 -25.567,-13.967 -34.566,-20.9719 -53.201,-41.4113 -12.706,-13.9363 -15.294,-18.13 -19.878,-32.2141 -4.824,-14.8212 -5.107,-19.4514 -1.992,-32.6212 3.157,-13.3485 4.272,-16.2089 6.315,-16.2089 0.882,0 4.649,0.8711 8.372,1.9357 6.874,1.9656 8.452,1.8969 8.452,-0.3678 0,-2.2436 -3.202,-4.255 -15.555,-9.771 -16.448,-7.3446 -21.651,-10.6187 -31.29,-19.6898 -8.747,-8.2321 -16.549,-19.052 -19.78,-27.4333 -3.741,-9.7033 -12.801,-38.5251 -14.414,-45.8561 -2.2,-9.9966 -3.044,-31.6981 -1.538,-39.5383 0.649,-3.3776 2.903,-9.7343 5.01,-14.126 5.489,-11.4418 13.104,-18.7439 25.993,-24.9258 16.501,-7.914 19.246,-8.3526 52.065,-8.3193 31.458,0.032 32.666,0.177 61.888,7.4319 86.29,21.4227 161.899,72.6918 181.267,122.9149 1.609,4.1699 2.924,8.7165 2.924,10.1037 0,2.2367 -0.227,2.4004 -2.01,1.4464 -1.105,-0.5917 -3.426,-0.9388 -5.157,-0.7714 -2.813,0.2721 -3.479,0.9936 -6.271,6.7868 -3.882,8.0575 -6.672,10.7141 -18.152,17.2857 -10.112,5.7889 -10.758,5.8867 -25.801,3.9083 l -8.764,-1.1528 -3.578,-10.7455 -3.577,-10.7455 3.255,-5.4056 c 3.658,-6.0742 4.309,-12.3941 1.877,-18.2147 -2.005,-4.7998 -8.338,-11.4202 -12.866,-13.4513 -6.374,-2.8593 -44.693,-42.9932 -48.429,-50.7242 -3.058,-6.3264 -2.766,-7.2259 -13.328,41.0133 -10.989,50.1861 -10.417,45.5308 -6.096,49.606 8.157,7.6922 40.005,20.7699 67.867,27.868 21.169,5.3928 25.287,6.9088 38.635,14.2209 6.298,3.45 16.535,9.0274 22.748,12.3942 18.842,10.2097 36.366,22.6016 61.487,43.4789 12.208,10.146 19.732,18.1502 26.743,28.4502 3.487,5.1228 3.779,7.6618 1.72,14.9631 -0.775,2.749 -1.931,6.9874 -2.568,9.4187 -1.523,5.8115 -11.571,15.7568 -25.004,24.7471 -13.233,8.8567 -18.668,11.177 -36.695,15.6658 -24.511,6.1037 -29.99,6.7317 -58.766,6.7361 h -25.717 l -0.551,5.1574 c -0.303,2.8365 -1.692,21.5072 -3.086,41.4904 -1.393,19.9831 -2.714,36.5131 -2.934,36.7332 -0.22,0.2202 -0.69,-0.3548 -1.044,-1.2777 z m 66.405,-132.6819 c 0.667,-0.8036 0.977,-2.0755 0.688,-2.8265 -0.773,-2.0153 -19.638,-16.8823 -35.469,-27.9517 -17.226,-12.0456 -32.383,-21.6866 -45.762,-29.1083 -5.673,-3.1471 -16.11,-8.9684 -23.193,-12.9361 -7.084,-3.9677 -19.461,-10.2665 -27.506,-13.9974 -8.045,-3.7308 -21.196,-9.9282 -29.224,-13.7718 -8.028,-3.8436 -14.937,-6.9884 -15.353,-6.9884 -1.55,0 -3.197,6.0141 -2.62,9.5701 1.607,9.9002 9.974,21.3062 31.47,42.8981 10.348,10.3936 13.769,13.1037 26.15,20.7124 23.948,14.7176 45.561,22.9169 76.132,28.882 37.74,7.3639 42.651,7.9703 44.687,5.5176 z m -142.525,-151.5405 c 0.531,-2.0261 2.331,-11.4199 4,-20.875 1.669,-9.4552 4.994,-27.1375 7.389,-39.2941 2.395,-12.1566 4.657,-24.69 5.027,-27.8519 0.619,-5.2943 0.525,-5.7205 -1.187,-5.3909 -2.272,0.4376 -3.877,3.6549 -6.44,12.9034 -3.852,13.9068 -6.985,17.2989 -8.006,8.6714 -0.725,-6.1212 -0.07,-8.4938 2.852,-10.4119 6.669,-4.3697 -1.985,-11.3313 -18.37,-14.7781 -8.635,-1.8164 -28.44,-2.0664 -37.243,-0.4701 -13.291,2.4101 -21.755,7.2766 -25.463,14.6409 -1.948,3.8672 -5.965,21.0738 -5.965,25.5481 0,1.5431 1.795,6.3929 3.99,10.7772 l 3.99,7.9716 12.555,8.2531 c 6.906,4.5392 17.819,11.3756 24.253,15.192 6.434,3.8163 14.318,8.6125 17.52,10.6582 9.925,6.3391 13.678,8.1399 16.964,8.1399 2.837,0 3.271,-0.3873 4.134,-3.6838 z"
           id="path21"
           transform="scale(0.26458333)" /><path
           style="fill:#238003;fill-opacity:1"
           d="m 2615.7663,747.38891 c -0.1941,-0.0669 -1.2673,-0.22469 -2.3849,-0.35076 -1.4231,-0.16053 -2.3483,-0.4952 -3.0868,-1.11669 -0.9465,-0.79635 -1.0547,-1.0962 -1.0547,-2.9206 0,-1.61111 0.1825,-2.28196 0.8791,-3.23184 2.0682,-2.81994 2.105,-3.63074 0.7133,-15.74281 -0.2949,-2.56649 -0.6274,-7.40837 -0.739,-10.75973 -0.1115,-3.35136 -0.3475,-6.649 -0.5245,-7.3281 -0.3636,-1.39525 -1.2254,-10.31376 -1.8505,-19.14794 l -0.4187,-5.91877 -3.7063,2.26204 c -2.0757,1.26687 -4.7918,2.59285 -6.1736,3.01397 -4.7115,1.43584 -6.02,2.09775 -6.5567,3.31667 -0.2867,0.65126 -0.9794,1.3519 -1.6385,1.65736 -1.4021,0.64989 -1.6301,1.23109 -3.9436,10.05417 -0.9666,3.68653 -2.2202,7.81403 -2.7857,9.17222 -1.7769,4.26778 -4.7414,9.68204 -5.4189,9.89706 -0.9348,0.29671 -1.9871,-0.1287 -2.2327,-0.90267 -0.1171,-0.369 1.0788,-7.98841 2.6577,-16.93202 l 2.8707,-16.2611 -3.7203,-3.85069 c -2.0461,-2.11788 -4.0622,-4.53129 -4.4802,-5.36313 -0.418,-0.83185 -1.2806,-2.38557 -1.9169,-3.45272 -0.6362,-1.06716 -1.1588,-2.33716 -1.1613,-2.82223 0,-0.48507 -0.3193,-1.59632 -0.7038,-2.46944 -0.3846,-0.87313 -0.803,-2.38125 -0.9298,-3.35139 -0.1268,-0.97014 -0.6925,-3.58951 -1.2571,-5.82083 -0.9557,-3.77721 -1.8611,-8.61466 -2.9722,-15.88148 -0.2527,-1.6528 -0.8148,-3.70152 -1.249,-4.55271 -0.7078,-1.3873 -0.7517,-1.75205 -0.4242,-3.52129 0.201,-1.08553 0.4675,-3.00556 0.5923,-4.26675 0.2808,-2.83794 0.801,-4.93888 1.2227,-4.93888 0.1755,0 1.241,-0.84009 2.3677,-1.86687 4.3564,-3.96998 6.9644,-5.51937 9.3145,-5.53372 0.6978,-0.004 1.8091,-0.27988 2.4695,-0.61249 1.8739,-0.9438 3.5814,-0.79157 5.1238,0.45679 2.4836,2.01021 2.5586,2.23294 2.7793,8.26184 0.4518,12.34206 2.3488,23.0662 5.9864,33.84218 1.1711,3.46915 1.3739,3.80761 3.5455,5.91601 1.913,1.85744 2.341,2.13056 2.5258,1.61199 0.6113,-1.71575 2.2794,-5.17067 2.9535,-6.11738 0.4185,-0.58775 0.968,-1.81476 1.221,-2.72669 0.253,-0.91193 1.1084,-3.24555 1.9009,-5.18583 2.2875,-5.60066 5.287,-14.60873 5.6971,-17.10972 0.2069,-1.26118 0.5043,-8.56368 0.6609,-16.22778 0.3032,-14.83524 0.3598,-15.33429 2.4793,-21.86144 0.3485,-1.07308 0.9951,-4.09419 1.4369,-6.71356 0.7058,-4.18467 0.9629,-5.01103 2.1186,-6.81084 1.3801,-2.14907 2.0346,-2.58918 9.0775,-6.10389 4.5323,-2.26184 8.4537,-1.95992 10.6796,0.82225 0.7717,0.96455 0.7808,1.10085 0.5775,8.65951 l -0.2065,7.67953 1.5737,-1.08275 c 2.8921,-1.98979 4.302,-2.44208 7.6387,-2.45051 l 3.0688,-0.008 3.4576,3.00678 c 4.734,4.11679 10.652,7.86223 21.2728,13.46332 4.9477,2.60926 10.8215,5.87288 13.0528,7.25247 4.5353,2.80413 12.2161,8.55143 13.4297,10.04897 0.4428,0.5465 0.6926,0.70002 0.5669,0.34837 -1.3567,-3.7941 -2.0488,-9.09816 -1.6469,-12.62182 0.9395,-8.2377 5.271,-13.06468 13.975,-15.57375 2.4835,-0.71592 3.5308,-0.80013 9.835,-0.79086 7.7983,0.0115 10.3147,0.34971 18.5209,2.48949 20.5124,5.3487 39.6903,17.67765 46.3459,29.79463 1.4692,2.67474 2.6902,6.02101 2.6902,7.37298 0,1.79741 -1.2211,2.60255 -3.0396,2.00417 -0.6411,-0.21096 -0.8517,-10e-4 -1.491,1.48492 -0.7744,1.80014 -1.4488,2.34534 -6.1511,4.97253 -1.8047,1.0083 -2.25,1.11497 -3.8806,0.92963 -1.3846,-0.15738 -1.6405,-0.12267 -1.0306,0.1398 0.4462,0.19205 1.4781,0.80353 2.2931,1.35886 0.8149,0.55532 2.6723,1.5497 4.1275,2.20974 1.4553,0.66003 3.6493,1.83505 4.8756,2.61116 3.668,2.32135 11.0936,7.59923 12.3224,8.75828 1.3365,1.26078 1.4279,0.94327 0.4053,-1.40889 -0.4077,-0.93772 -0.9578,-2.89557 -1.2224,-4.35078 -0.6488,-3.56691 -0.6526,-13.64121 -0.01,-16.99049 0.6123,-3.17415 2.2823,-7.58178 3.4741,-9.16908 0.4875,-0.64938 1.2874,-1.97445 1.7774,-2.94459 1.0968,-2.17126 6.9724,-8.95347 9.0939,-10.49709 0.8577,-0.62402 1.8769,-1.42891 2.2649,-1.78865 0.3881,-0.35973 1.6473,-1.13292 2.7983,-1.7182 1.151,-0.58527 2.6717,-1.44727 3.3793,-1.91556 1.7888,-1.18379 11.2958,-4.68675 14.2835,-5.26297 5.0163,-0.96742 20.7028,-0.4216 25.2236,0.87767 0.6791,0.19517 2.968,0.77086 5.0863,1.27931 3.869,0.92863 11.9382,3.87843 15.3789,5.62198 1.0148,0.51423 2.8578,1.73082 4.0955,2.70352 l 2.2505,1.76856 v -1.76234 c 0,-1.67152 0.1343,-1.92471 2.6079,-4.91321 2.8623,-3.45827 4.7359,-4.98599 8.5667,-6.98543 2.1837,-1.13972 2.8648,-1.32437 4.9558,-1.34352 1.9383,-0.0177 2.687,0.14016 3.7347,0.7877 0.7207,0.44544 1.4672,1.10277 1.6588,1.46073 0.5059,0.94532 0.4269,5.56134 -0.1781,10.41202 -0.4123,3.30602 -0.5269,8.70444 -0.5291,24.92718 v 20.70725 l 1.1206,3.09703 c 1.0053,2.77836 1.3592,3.32378 3.4396,5.30078 1.6498,1.56791 2.5932,2.20644 3.2697,2.21308 1.6077,0.0158 3.8117,-2.75294 7.3236,-9.20001 l 3.1909,-5.85794 v -2.58144 c 0,-1.79679 -0.4184,-4.3054 -1.3767,-8.25317 -1.8631,-7.67574 -2.2405,-11.30349 -2.096,-20.14571 l 0.1213,-7.41842 1.3055,-1.77735 c 1.563,-2.12784 8.0535,-7.60391 9.9534,-8.39777 1.6268,-0.67969 6.3559,-0.7537 7.5553,-0.11825 0.4524,0.23968 1.2807,1.22952 1.8407,2.19966 3.3442,5.79354 4.7574,10.07222 6.1544,18.63395 l 0.9683,5.93394 -0.6072,3.59106 c -0.334,1.97508 -0.6829,4.86105 -0.7755,6.41327 -0.157,2.63303 -0.061,3.14405 1.4297,7.6227 2.9918,8.98767 8.6278,22.43373 10.261,24.48008 2.6952,3.37696 3.0144,4.07279 2.9914,6.52009 -0.032,3.38816 -0.9554,5.0672 -4.4178,8.03267 -1.5685,1.34341 -3.5529,2.92372 -4.4097,3.51179 -3.7717,2.58871 -10.433,2.37849 -11.8505,-0.37397 -0.3144,-0.61051 -0.9552,-1.61464 -1.424,-2.23141 -0.4688,-0.61676 -1.6942,-3.07738 -2.7231,-5.46805 -1.0289,-2.39067 -2.713,-6.06227 -3.7425,-8.1591 l -1.8718,-3.81243 -3.0257,2.95312 c -3.5068,3.42259 -5.0448,4.65804 -9.2876,7.46043 -3.0458,2.0118 -3.0871,2.05833 -3.1068,3.50564 -0.011,0.80673 -0.2263,4.16553 -0.4785,7.464 -0.3529,4.61682 -0.6304,6.38476 -1.2056,7.68092 -0.7664,1.72723 -1.7559,2.41716 -3,2.09182 -0.9076,-0.23735 -1.9887,-2.79664 -2.3914,-5.66118 -0.1815,-1.29122 -0.6626,-4.13829 -1.0691,-6.32682 -0.6974,-3.75452 -0.7815,-3.96613 -1.4907,-3.74854 -0.9291,0.28506 -0.7465,-0.0123 -1.4077,2.29224 -1.1307,3.94083 -3.0633,4.95279 -5.0775,2.65871 -0.8094,-0.92186 -1.0985,-1.66945 -1.2858,-3.32513 -0.2219,-1.9614 -0.3424,-2.19533 -1.4751,-2.86365 -3.5609,-2.10094 -6.4557,-4.63339 -8.067,-7.05718 -1.736,-2.61124 -3.8347,-8.28113 -4.3685,-11.80178 l -0.2743,-1.80885 -0.8231,1.5875 c -2.0905,4.03211 -4.9446,7.31031 -9.9636,11.44424 -5.0013,4.11938 -7.314,5.49454 -11.5771,6.88405 -1.2612,0.41107 -3.444,1.23931 -4.8507,1.84052 l -2.5576,1.09312 v 2.70849 c 0,1.48966 -0.2487,5.31791 -0.5526,8.50722 -1.0375,10.88745 -2.0102,14.15358 -4.2808,14.37434 -0.8657,0.0842 -1.2475,-0.085 -1.6793,-0.74409 -0.7393,-1.12832 -1.5874,-5.21927 -1.5951,-7.69407 0,-1.08858 -0.1054,-2.70331 -0.2267,-3.58829 -0.2088,-1.52355 -0.2634,-1.5895 -1.0283,-1.241 -0.6476,0.29507 -1.1111,0.20084 -2.3371,-0.47508 l -1.5293,-0.84314 -0.097,-5.48721 -0.097,-5.4872 -5.292,-1.15258 c -7.5999,-1.65522 -13.5077,-3.60362 -16.1971,-5.34186 -1.2341,-0.79766 -3.131,-1.94407 -4.2153,-2.54758 -1.0842,-0.60351 -2.9415,-1.93975 -4.1271,-2.96942 -1.1857,-1.02967 -2.3277,-1.87213 -2.5377,-1.87213 -0.21,0 -0.6151,-0.333 -0.9001,-0.74001 -0.4953,-0.70705 -0.5334,-0.71098 -0.8556,-0.0882 -0.1854,0.35849 -0.4507,1.27943 -0.5894,2.04651 -0.5959,3.29438 -1.8632,4.63179 -8.6601,9.13931 -2.8583,1.89561 -3.8963,2.36393 -7.0555,3.18352 -2.0373,0.52852 -4.3392,1.13092 -5.1153,1.33865 -3.3219,0.88912 -7.9365,1.27457 -12.9932,1.08529 -3.3604,-0.12579 -5.1748,-0.0694 -5.1748,0.16083 0,0.195 -0.3209,4.9323 -0.713,10.52734 -0.7716,11.00944 -0.8791,11.44675 -2.8148,11.44675 -0.522,0 -1.1923,-0.27781 -1.4897,-0.61736 -0.7691,-0.87813 -1.0663,-3.53065 -0.6258,-5.58469 0.3051,-1.42253 0.2395,-2.58852 -0.3466,-6.15495 -0.3976,-2.41997 -0.8239,-5.78901 -0.9472,-7.48675 -0.165,-2.27205 -0.3519,-3.08681 -0.7083,-3.08681 -0.5066,0 -2.1901,2.42789 -2.9417,4.24238 -0.481,1.16123 -1.8604,1.73255 -2.7849,1.1535 -0.3495,-0.21891 -0.5953,-0.94035 -0.6486,-1.90403 -0.047,-0.85336 -0.1775,-2.38303 -0.2894,-3.39927 l -0.2036,-1.8477 -3.9439,-1.2163 c -2.1692,-0.66896 -4.6583,-1.39768 -5.5314,-1.61937 -0.8732,-0.22169 -3.0957,-1.21499 -4.9389,-2.20732 -1.8433,-0.99233 -3.9958,-2.14161 -4.7833,-2.55395 -4.8542,-2.54151 -7.9455,-4.74173 -11.115,-7.91102 -6.5641,-6.56373 -7.056,-7.24078 -8.5117,-11.71586 -0.7166,-2.20318 -1.399,-4.60386 -1.5164,-5.33486 -0.1819,-1.13281 0.5656,-5.06412 1.8072,-9.50412 0.1256,-0.44941 -0.3521,-0.86667 -1.8791,-1.64108 -1.1261,-0.57114 -3.3572,-2.2584 -4.958,-3.74945 -2.0886,-1.94548 -2.9121,-2.52805 -2.9164,-2.06308 0,0.35636 -0.3021,3.19397 -0.664,6.30582 -0.6211,5.34022 -0.7422,5.82528 -2.157,8.63917 -2.0568,4.09068 -4.5932,7.0573 -9.4847,11.09316 -1.4045,1.15879 -3.502,2.61364 -4.6612,3.23301 -3.0096,1.60797 -4.5053,2.83966 -4.7803,3.93638 -0.392,1.56321 -1.8406,4.51199 -2.5017,5.09248 -0.8391,0.73684 -2.0579,1.07082 -2.9149,0.7988 -0.7352,-0.23335 -2.0813,-2.48795 -2.1494,-3.60004 -0.058,-0.95 -0.5287,1.73993 -1.0212,5.83846 -0.422,3.51131 -0.4796,3.67313 -1.5413,4.32929 -0.7483,0.46244 -1.6021,0.65078 -2.655,0.58568 -2.4427,-0.15103 -2.9153,-1.06384 -3.2694,-6.31564 -0.1595,-2.36554 -0.3604,-4.37132 -0.4463,-4.4573 -0.1812,-0.18119 -5.2307,-1.17126 -5.3423,-1.04746 -0.041,0.0455 -0.4098,5.32153 -0.8196,11.72445 -1.1421,17.84449 -0.9524,16.477 -2.5937,18.69241 -1.7183,2.31926 -7.2245,6.19149 -10.2854,7.23318 -2.9007,0.98718 -6.9276,0.97513 -8.5468,-0.0256 -1.3508,-0.83486 -1.3799,-0.92741 -1.8739,-5.96808 -3.2592,-33.25157 -5.3051,-58.60144 -5.6089,-69.49722 l -0.2312,-8.29028 -0.4293,4.93889 c -0.2361,2.71639 -0.5963,7.95514 -0.8005,11.64167 -0.2041,3.68652 -0.5249,9.08402 -0.7128,11.99444 -0.5469,8.47055 -0.4592,15.60429 0.3081,25.04722 0.3942,4.8507 0.8732,11.67695 1.0645,15.16945 0.3064,5.59654 1.8112,16.61669 2.3987,17.56729 0.116,0.18771 0.2537,1.62999 0.306,3.20506 0.052,1.57507 0.4357,4.83846 0.852,7.25198 0.4612,2.67346 0.6698,4.94804 0.5338,5.82083 -0.4197,2.69353 -2.0858,7.27809 -3.0859,8.4914 -1.3155,1.59598 -7.7032,5.00852 -10.9575,5.85389 -2.2693,0.5895 -5.106,0.8199 -6.0576,0.49202 z m 5.3948,-2.09201 c 2.031,-0.54065 7.6875,-3.31627 9.4839,-4.65379 1.1723,-0.87277 2.1728,-3.06742 3.1702,-6.95425 0.491,-1.91336 0.4743,-2.37573 -0.236,-6.52639 -0.4205,-2.45693 -0.8228,-5.78018 -0.8941,-7.38499 -0.071,-1.60482 -0.2093,-3.0471 -0.307,-3.20506 -0.5017,-0.81191 -2.035,-11.88002 -2.3283,-16.80765 -0.6736,-11.31722 -1.0974,-17.36449 -1.4712,-20.99028 -0.452,-4.3846 -0.4234,-13.19605 0.068,-20.81389 0.1938,-3.00743 0.5972,-9.51618 0.8964,-14.46389 0.2992,-4.9477 1.0128,-13.35555 1.5859,-18.6841 0.5731,-5.32855 1.0582,-9.9323 1.0781,-10.23056 0.02,-0.29825 0.2623,0.41022 0.5388,1.57439 0.7135,3.0048 1.5183,13.49237 1.531,19.94962 0.01,3.01715 0.1746,7.6209 0.3748,10.23055 1.7908,23.33909 3.116,39.06792 4.2041,49.90038 0.3704,3.68653 0.8701,8.68716 1.1105,11.1125 0.319,3.21737 0.5881,4.52593 0.9952,4.83948 0.9202,0.70863 5.2382,0.55017 7.4002,-0.27157 2.6337,-1.001 7.5767,-4.5292 9.0516,-6.46087 l 1.2256,-1.60505 0.9292,-14.56697 c 0.709,-11.11433 1.0452,-14.66193 1.4187,-14.96765 0.3708,-0.30359 1.4379,-0.19979 4.4038,0.42835 2.1529,0.45596 3.9611,0.87582 4.0183,0.93302 0.057,0.0572 0.2173,2.08695 0.3558,4.51055 0.3051,5.34079 0.5042,5.99591 1.8204,5.98864 0.5384,-0.003 1.1791,-0.1325 1.4238,-0.28785 0.2715,-0.17233 0.6912,-2.30225 1.0766,-5.46319 0.3473,-2.84941 0.7821,-5.32632 0.9661,-5.50425 0.1841,-0.17793 0.8903,-0.37612 1.5693,-0.44043 1.0922,-0.10343 1.2464,-0.0151 1.3354,0.76501 0.2077,1.8204 1.1889,3.92174 1.7783,3.80823 0.7107,-0.13686 1.9869,-2.33591 2.768,-4.7693 0.4999,-1.55773 0.8714,-2.0289 2.4001,-3.0439 0.9948,-0.66048 2.4801,-1.54338 3.3006,-1.96199 1.4944,-0.7624 1.9597,-1.10396 4.0517,-2.97462 0.6176,-0.55225 1.7931,-1.46958 2.6122,-2.03851 0.8191,-0.56894 1.9515,-1.7046 2.5165,-2.5237 0.5651,-0.81909 1.3811,-1.80676 1.8134,-2.19482 0.4323,-0.38805 1.4555,-2.05493 2.2737,-3.70416 1.4292,-2.88051 1.5129,-3.235 2.1245,-9.00028 0.5077,-4.78593 0.5566,-6.37539 0.241,-7.8466 -0.7688,-3.58498 -5.9281,-12.78646 -7.1694,-12.78646 -0.2023,0 -1.2516,-0.80768 -2.3317,-1.79484 -3.9978,-3.65372 -12.5769,-8.85838 -26.7101,-16.20402 -6.9674,-3.62126 -12.4077,-7.18732 -16.6406,-10.90775 l -3.2351,-2.84339 -2.5857,0.008 c -3.0481,0.009 -4.1899,0.46762 -8.2091,3.29619 -1.5405,1.08421 -2.864,1.90832 -2.941,1.83134 -0.077,-0.077 0.045,-2.81171 0.2719,-6.07719 0.2266,-3.26549 0.3594,-7.43956 0.2952,-9.27571 l -0.1167,-3.33846 -1.1987,-0.80668 c -2.2968,-1.54567 -5.0681,-0.95043 -10.8939,2.33989 -5.1428,2.90459 -5.6492,3.63426 -6.7525,9.72982 -0.4565,2.52236 -1.1994,5.80596 -1.6509,7.29689 -1.9268,6.36312 -1.9707,6.77609 -2.2783,21.4545 -0.1606,7.66409 -0.4577,14.92708 -0.6602,16.13997 -0.2026,1.21288 -1.1856,4.54663 -2.1845,7.40833 -0.9989,2.8617 -2.0931,6.07621 -2.4315,7.14336 -0.3385,1.06716 -1.1162,3.03842 -1.7282,4.38058 -0.6121,1.34216 -1.2646,3.11768 -1.4502,3.94559 -0.1855,0.82791 -0.8106,2.20661 -1.3891,3.06378 -0.5785,0.85716 -1.551,2.81228 -2.161,4.34469 -0.61,1.53241 -1.1306,2.80482 -1.1567,2.82759 -0.026,0.0228 -0.6441,0.14923 -1.373,0.28104 -1.1673,0.21104 -1.3632,0.14297 -1.6424,-0.57057 -0.1743,-0.44561 -1.2604,-1.7627 -2.4136,-2.92686 -1.9461,-1.96463 -2.1882,-2.39541 -3.3714,-5.99723 -3.8494,-11.71886 -5.5792,-21.45326 -6.0806,-34.21944 -0.2265,-5.76775 -0.4006,-6.24562 -2.7127,-7.44852 -0.8493,-0.44187 -1.1252,-0.43194 -2.2931,0.0826 -0.7301,0.3217 -2.2593,0.7065 -3.3981,0.85513 -2.4007,0.31331 -5.2801,2.11464 -8.9537,5.60139 -2.0415,1.9377 -2.2049,2.20572 -2.2053,3.61775 -3e-4,0.83875 -0.2336,2.84948 -0.5185,4.46828 -0.5094,2.89437 -0.5042,2.97057 0.3111,4.58611 0.456,0.90356 0.9412,2.67471 1.0781,3.93589 0.3874,3.56825 1.9075,11.75387 3.0135,16.22778 0.5516,2.23132 1.1135,4.85069 1.2486,5.82083 0.1352,0.97014 0.5653,2.47702 0.9558,3.34863 0.3906,0.87161 0.7415,1.9844 0.78,2.47287 0.078,0.98845 2.4129,5.43443 3.9532,7.52679 0.5482,0.74461 2.4385,2.74981 4.2007,4.456 l 3.2041,3.10216 -2.7554,15.65233 c -1.5154,8.60878 -2.843,16.04921 -2.9501,16.53428 -0.3136,1.41922 2.6209,-4.10602 4.1218,-7.76111 0.757,-1.84327 2.1815,-6.44702 3.1656,-10.23056 2.0382,-7.83616 2.6512,-9.29169 4.1304,-9.80733 0.7254,-0.2529 1.1551,-0.72945 1.4423,-1.59979 0.4296,-1.30154 1.2221,-1.68659 8.1124,-3.94127 1.0558,-0.34547 2.9608,-1.29546 4.2333,-2.11108 1.2726,-0.81562 3.3721,-2.069 4.6655,-2.78529 l 2.3517,-1.30235 0.2048,2.2187 c 0.1126,1.22028 0.3711,4.67931 0.5744,7.68674 0.4821,7.13169 1.3394,15.96653 1.726,17.7857 0.1683,0.79238 0.4108,4.13944 0.5388,7.43792 0.128,3.29847 0.4651,8.14034 0.7491,10.75972 1.4037,12.94685 1.3656,13.79521 -0.7305,16.28638 -0.9906,1.17716 -1.2416,3.79387 -0.4288,4.46848 0.4884,0.40531 4.0853,1.00448 6.4211,1.06963 0.7762,0.0216 2.2513,-0.18429 3.2782,-0.45764 z m 57.6271,-85.23578 c -2.2031,-0.1496 -4.5651,-0.37693 -5.2487,-0.50519 -1.9897,-0.37327 -4.8809,-1.79045 -7.0651,-3.46312 -1.1137,-0.85282 -3.2154,-2.32926 -4.6707,-3.28098 -1.4552,-0.95171 -2.8348,-1.96852 -3.0658,-2.25956 -0.693,-0.87296 -1.4541,-5.06946 -2.2393,-12.34722 -0.4083,-3.78354 -0.9566,-7.93157 -1.2185,-9.21784 -0.6192,-3.04084 -0.3579,-5.24605 0.6216,-5.24605 0.8366,0 11.1457,5.39503 12.218,6.394 0.6571,0.61215 0.7396,1.08842 0.7396,4.26808 0,2.90897 0.138,3.86409 0.737,5.10154 0.4054,0.83737 0.8703,1.52249 1.0332,1.52249 0.6895,0 1.4018,-1.22518 2.3039,-3.96309 0.5284,-1.60384 0.9942,-2.95785 1.035,-3.0089 0.041,-0.0511 0.6146,0.13696 1.2749,0.41781 0.6604,0.28085 2.4958,1.83075 4.0787,3.44422 3.2106,3.27261 5.4298,7.13423 6.0604,10.54539 0.1961,1.06053 0.3953,2.08359 0.4428,2.27348 0.048,0.18989 -0.039,1.79747 -0.1922,3.5724 -0.2904,3.36488 -1.2717,5.89567 -2.3194,5.98182 -0.2857,0.0235 -2.3222,-0.0797 -4.5254,-0.22928 z m 4.5824,-2.54149 c 0.2583,-0.48248 0.4361,-2.45385 0.4534,-5.02708 l 0.028,-4.23334 -1.5056,-3.13376 c -1.1716,-2.43857 -2.1047,-3.74944 -4.2063,-5.90903 -1.4854,-1.52639 -2.796,-2.77526 -2.9123,-2.77526 -0.1164,0 -0.593,1.1203 -1.0592,2.48956 -1.3159,3.86534 -3.6752,5.04375 -5.4335,2.71391 -1.1826,-1.56711 -1.6358,-3.4514 -1.6381,-6.81174 0,-1.73688 -0.1735,-3.06145 -0.4429,-3.40448 -0.492,-0.62644 -9.7572,-5.72062 -9.9868,-5.49095 -0.08,0.0802 0.084,1.34681 0.3647,2.81459 0.2808,1.46778 0.8342,5.66359 1.2298,9.32404 0.9592,8.87673 1.3166,10.57295 2.45,11.62906 1.4557,1.35637 9.3832,6.75943 10.8605,7.40207 1.5972,0.69481 4.5023,1.09173 8.4749,1.15789 2.6692,0.0445 2.9316,-0.0144 3.323,-0.74548 z m 168.3478,56.44445 c 1.0397,-2.74004 2.338,-14.06408 2.3456,-20.4576 v -3.0833 l 2.3812,-1.0978 c 1.3097,-0.60379 3.81,-1.56812 5.5563,-2.14296 4.8352,-1.5917 6.8466,-2.77492 11.9196,-7.01209 6.4414,-5.38009 9.2304,-9.19336 10.5356,-14.40509 1.3273,-5.29978 0.4367,-12.97383 -1.7095,-14.73011 -2.1747,-1.77961 -6.1579,-0.49992 -10.9741,3.52569 -2.4053,2.01044 -3.1142,2.84514 -3.9687,4.67289 -1.0202,2.18207 -1.0404,2.33831 -1.0404,8.05266 0,6.79565 0.2257,6.40199 -4.2571,7.42571 -6.0618,1.38434 -16.6326,-0.39387 -24.7901,-4.17014 -3.836,-1.7758 -12.1932,-8.26921 -14.6034,-11.34661 -1.9673,-2.51187 -4.5638,-6.81384 -5.1987,-8.61358 l -0.5419,-1.53594 4.499,0.22016 c 10.7791,0.52747 27.2492,0.66291 32.545,0.26764 5.8409,-0.43596 12.091,-1.6582 15.875,-3.10441 2.7678,-1.05788 8.078,-4.02605 10.1473,-5.67192 1.4736,-1.17208 5.9126,-6.06257 6.6096,-7.2819 0.2378,-0.416 0.3208,4.99631 0.2545,16.60837 -0.06,10.5353 0.042,18.14014 0.2637,19.58051 0.5939,3.86377 2.4297,9.07053 4.0834,11.58154 1.4537,2.20736 4.3961,4.77138 7.7383,6.74336 1.5606,0.92075 1.812,1.38263 2.1264,3.90613 0.1604,1.28687 0.493,2.22799 0.926,2.61986 0.9139,0.82702 1.3056,0.36952 2.0508,-2.3948 0.5179,-1.92127 0.7708,-2.32079 1.81,-2.85904 0.6644,-0.34413 1.7491,-0.58225 2.4104,-0.52917 l 1.2024,0.0965 0.8255,4.7625 c 0.4541,2.61937 0.9674,5.715 1.1408,6.87917 0.1733,1.16416 0.5439,2.67229 0.8235,3.35138 l 0.5083,1.23473 0.7075,-1.59152 c 0.5679,-1.27775 0.7936,-3.01651 1.1447,-8.81945 0.2405,-3.97536 0.5115,-7.49463 0.6022,-7.8206 0.091,-0.32598 0.9911,-1.06124 2.001,-1.63392 3.1897,-1.8088 8.0617,-5.66693 11.7344,-9.29255 4.0235,-3.97186 4.0056,-3.97038 5.3915,-0.44565 0.3879,0.98644 1.4183,3.20894 2.2899,4.93889 0.8716,1.72994 2.1585,4.53552 2.8598,6.23462 0.7012,1.6991 1.9058,4.06528 2.6768,5.25817 0.771,1.19289 1.4018,2.2875 1.4018,2.43247 0,0.43939 2.1298,1.03815 3.6928,1.03815 2.5081,0 4.8029,-0.92933 7.3655,-2.98282 5.4449,-4.36313 6.2278,-5.46508 6.2278,-8.76578 0,-1.62366 -0.1772,-2.01604 -1.9646,-4.3497 -2.5876,-3.37828 -7.1278,-13.9259 -11.1381,-25.87568 l -2.0697,-6.16703 0.7864,-5.29825 c 0.4326,-2.91403 0.7759,-6.09199 0.7629,-7.06213 -0.042,-3.16564 -1.5414,-11.20316 -2.8292,-15.16945 -1.3263,-4.08449 -1.7149,-4.97334 -3.119,-7.13401 -1.9971,-3.07325 -1.7668,-2.92015 -4.3935,-2.92015 -1.3269,0 -2.8716,0.19844 -3.4328,0.44097 -1.7242,0.74521 -8.1701,6.26726 -9.2908,7.95924 l -1.0588,1.59853 v 7.4621 c 0,8.33669 0.4272,12.0473 2.1528,18.69888 1.4913,5.74826 1.7694,10.69128 0.7262,12.9035 -1.9457,4.1258 -6.4052,11.40794 -8.0725,13.18214 -1.7205,1.83085 -1.9499,1.96019 -3.4753,1.96019 -1.5224,0 -1.804,-0.15772 -4.1551,-2.32742 -2.845,-2.62557 -3.3314,-3.41881 -4.8185,-7.85741 l -1.0548,-3.14841 v -18.64518 c 10e-4,-16.36127 0.087,-19.3582 0.6986,-24.46602 0.3832,-3.20146 0.695,-7.01146 0.6927,-8.46667 0,-2.46891 -0.068,-2.69291 -0.9631,-3.34985 -0.7388,-0.54236 -1.4653,-0.69339 -3.1636,-0.65775 -1.9208,0.0403 -2.5338,0.24108 -4.7625,1.55965 -3.6013,2.13068 -4.9815,3.30966 -7.3583,6.28581 l -2.0788,2.60313 v 3.88579 3.88579 l -1.1977,-1.56858 c -1.4855,-1.9454 -5.4908,-5.215 -7.8162,-6.38036 -3.6031,-1.80576 -12.1243,-4.81927 -16.2005,-5.72928 -2.3232,-0.51867 -4.3434,-1.01683 -4.4894,-1.10703 -0.1459,-0.0902 -2.1285,-0.39513 -4.4056,-0.67761 -5.2058,-0.64578 -15.9977,-0.65238 -19.3365,-0.0118 -2.8466,0.54615 -12.3731,4.03355 -13.8318,5.06348 -0.5417,0.38245 -1.9373,1.19799 -3.1015,1.81229 -5.5316,2.91892 -10.1844,7.76836 -15.1597,15.80046 -1.4675,2.36908 -2.9461,6.1133 -3.5524,8.99528 -0.6832,3.24807 -0.6896,13.07711 -0.011,16.5672 0.534,2.74507 2.1944,7.09462 3.3165,8.68748 0.3707,0.52621 1.0134,1.62748 1.4283,2.44727 0.6881,1.35967 5.0489,6.82115 6.6219,8.29323 2.1175,1.98171 5.4951,4.53555 7.8378,5.9263 1.4814,0.87941 3.3284,2.03574 4.1045,2.56962 1.8308,1.25935 9.852,3.76156 16.6688,5.19978 l 5.3798,1.13505 v 5.71599 5.71598 l 0.8896,0.40533 c 0.8055,0.367 0.9503,0.30554 1.5315,-0.65006 0.353,-0.58046 0.8436,-1.96769 1.0903,-3.08273 0.7837,-3.54199 1.0138,-4.02267 1.0549,-2.20374 0.02,0.87313 0.2551,4.84188 0.5231,8.81945 0.4629,6.86943 1.0269,10.58333 1.6074,10.58333 0.1446,0 0.5189,-0.67469 0.8318,-1.4993 z m -13.8786,-79.16254 c -3.327,-0.31146 -7.7143,-0.91683 -8.8194,-1.21692 -0.6791,-0.18441 -3.8402,-0.48964 -7.0248,-0.67828 -3.1845,-0.18864 -5.8514,-0.40432 -5.9264,-0.4793 -0.5595,-0.55953 4.4236,-8.3331 5.3418,-8.3331 0.2652,0 1.3876,-0.47625 2.4941,-1.05834 l 2.0119,-1.05833 h 8.3698 8.3698 l 4.7354,1.21178 c 11.607,2.97024 15.7031,4.67493 20.0669,8.35145 l 2.6316,2.21707 -2.4552,0.62818 c -2.1568,0.55185 -4.0413,0.6223 -15.508,0.57978 -7.179,-0.0266 -13.6084,-0.10041 -14.2875,-0.16399 z m 28.0146,-1.83753 c 0.1027,-0.16618 -0.4094,-0.78118 -1.1379,-1.36665 -2.878,-2.31282 -7.3184,-4.01262 -16.7874,-6.42634 l -5.6094,-1.42986 h -7.8369 -7.8369 l -2.5061,1.1608 c -2.1295,0.98635 -2.7229,1.47027 -3.9485,3.21993 -0.7934,1.13252 -1.3673,2.25509 -1.2754,2.49459 0.1142,0.29736 1.5471,0.49765 4.5185,0.63155 2.3932,0.10786 5.532,0.45564 6.9752,0.77286 1.4431,0.31722 4.0625,0.70534 5.8208,0.8625 4.3541,0.38917 29.3912,0.45731 29.624,0.0806 z m -100.1813,78.8834 c 0.1148,-1.21267 0.4523,-6.01486 0.7498,-10.67153 0.2976,-4.65667 0.6161,-8.68564 0.7077,-8.95328 0.1359,-0.39696 1.2539,-0.45492 6.0692,-0.31461 6.7702,0.19728 9.8446,-0.16131 16.9124,-1.97259 3.9072,-1.0013 5.1151,-1.48317 7.4779,-2.98328 5.7678,-3.66187 8.4997,-6.48568 8.4997,-8.78547 0,-0.46731 0.1832,-1.19187 0.407,-1.61014 0.8909,-1.66461 0.4374,-2.97936 -2.0728,-6.00883 -1.3151,-1.58713 -2.5388,-2.94814 -2.7193,-3.02447 -0.1804,-0.0763 -1.6092,-1.2732 -3.175,-2.6597 -5.0883,-4.50576 -13.0054,-9.91057 -18.1285,-12.37585 -1.808,-0.87003 -3.9591,-2.04406 -4.7802,-2.60897 -1.756,-1.20816 -4.5053,-2.15626 -9.8903,-3.41068 -2.153,-0.50151 -4.7018,-1.1512 -5.6641,-1.44375 -2.1013,-0.63883 -10.6022,-4.74568 -11.8015,-5.70137 l -0.8511,-0.67827 0.5332,-2.60104 c 1.2709,-6.19909 3.8975,-17.92947 4.4136,-19.71075 l 0.5621,-1.94028 0.3897,1.0952 c 0.4606,1.29435 11.6287,13.07783 12.7032,13.40313 3.4708,1.05081 5.2501,6.07157 3.0003,8.46635 -0.7058,0.75131 -0.7331,0.94691 -0.3504,2.50705 0.531,2.16453 1.4733,4.68894 1.7533,4.69704 0.1192,0.003 1.6205,0.15394 3.3362,0.33444 l 3.1195,0.32819 2.5249,-1.41634 c 3.5014,-1.96405 3.5283,-1.9893 4.7941,-4.49681 1.1824,-2.34234 1.3823,-2.43928 3.3431,-1.62108 0.5955,0.24851 0.6493,0.16099 0.4656,-0.7575 -0.8567,-4.28329 -3.9765,-9.24747 -8.8558,-14.09114 -7.1275,-7.07543 -15.892,-12.50581 -27.7598,-17.19966 -11.0929,-4.38735 -21.9977,-6.52292 -31.3527,-6.14002 -7.6336,0.31244 -12.5232,2.09455 -15.908,5.79806 -2.8336,3.10046 -3.9139,6.2319 -3.9281,11.38614 -0.01,3.57251 0.5335,6.07051 2.9541,13.58195 2.2138,6.86989 3.3683,8.91295 6.8485,12.11982 2.7812,2.56262 5.5134,4.18168 9.9233,5.88016 1.8928,0.72903 2.5576,1.15401 2.5576,1.63492 0,0.78675 -0.1969,0.79797 -2.1166,0.12065 -2.7122,-0.95689 -3.0698,-0.80504 -3.5311,1.49931 -0.2233,1.11566 -0.6296,2.80537 -0.903,3.75491 -0.6194,2.15169 -0.4136,3.59559 1.1772,8.26007 l 1.2401,3.63652 4.2832,4.64343 c 4.2975,4.65893 7.2029,6.96361 11.8354,9.38831 1.0722,0.56124 3.4279,1.85538 5.2347,2.87587 1.8068,1.0205 4.2674,2.13204 5.468,2.47011 2.9412,0.82817 10.6037,3.17184 10.7066,3.27472 0.045,0.0453 0.1933,1.55162 0.3289,3.34731 l 0.2464,3.2649 1.095,-1.97355 c 1.4761,-2.66051 2.6103,-3.7986 3.5374,-3.54964 0.4029,0.10819 1.0661,0.19888 1.4739,0.20153 0.6961,0.005 0.7545,0.24677 0.9573,3.97356 0.1188,2.18282 0.595,6.15678 1.0583,8.83103 0.4633,2.67426 0.7286,4.93259 0.5896,5.01852 -0.6949,0.42944 -0.6739,5.11226 0.023,5.11226 0.1532,0 0.3725,-0.99219 0.4873,-2.20486 z m 12.7237,-33.65355 c -10.4092,-1.81563 -13.3133,-2.41936 -15.3458,-3.19023 -1.2612,-0.47833 -3.1662,-1.2014 -4.2334,-1.60683 -2.8276,-1.07424 -5.9942,-2.68912 -7.4083,-3.77798 -0.6791,-0.52292 -2.2934,-1.53488 -3.5873,-2.24878 -1.3901,-0.76696 -2.8323,-1.91093 -3.5252,-2.79609 -0.6449,-0.82394 -1.2767,-1.54564 -1.4041,-1.60378 -0.1273,-0.0581 -1.5256,-1.59831 -3.1072,-3.4226 -3.4258,-3.95136 -4.9178,-7.0089 -4.2054,-8.61819 l 0.4298,-0.97106 6.0756,2.93352 c 3.3415,1.61343 6.8844,3.25234 7.873,3.64201 0.9886,0.38968 2.4699,1.13301 3.2918,1.65184 0.8219,0.51884 3.3921,1.96712 5.7115,3.21839 7.3511,3.96569 18.4976,11.46431 22.5037,15.13889 1.5108,1.38577 1.5988,1.55196 0.9934,1.87599 -0.3654,0.19554 -0.7938,0.33565 -0.9521,0.31135 -0.1583,-0.0243 -1.5578,-0.26571 -3.11,-0.53645 z m -0.3704,-2.19486 c -1.1628,-1.06183 -7.1281,-5.26314 -11.0861,-7.80784 -4.9669,-3.19336 -12.9381,-7.6894 -17.2949,-9.75493 -1.4552,-0.68991 -4.7715,-2.26979 -7.3695,-3.51084 -2.598,-1.24105 -4.7769,-2.25645 -4.842,-2.25645 -0.065,0 0.047,0.43656 0.2492,0.97014 0.4747,1.25297 2.297,3.60074 4.8606,6.2618 1.1215,1.16417 2.4785,2.70653 3.0155,3.42747 0.5423,0.72791 2.0209,1.89405 3.3251,2.6224 1.2917,0.72139 3.3018,1.96328 4.4669,2.75977 1.9471,1.3312 3.7098,2.12496 10.0525,4.52685 1.9356,0.73297 9.5423,2.35873 13.2292,2.82742 0.5821,0.074 1.2091,0.15833 1.3935,0.1874 0.2116,0.0334 0.2116,-0.0599 0,-0.25319 z m -35.9634,-37.2906 c -0.5808,-0.30284 -1.5333,-0.91429 -2.1167,-1.35876 -0.5833,-0.44447 -1.6956,-1.12395 -2.4717,-1.50995 -1.3067,-0.64989 -9.9165,-6.03029 -11.7351,-7.33349 -0.9002,-0.64507 -2.9052,-4.38668 -2.9052,-5.42153 0,-1.60006 1.7271,-7.19637 2.4625,-7.97914 2.6596,-2.83106 11.4,-3.79672 17.4503,-1.92797 1.9875,0.61389 3.7233,1.73267 3.7233,2.39983 0,0.15148 -0.4148,0.63612 -0.9218,1.07696 -0.8075,0.70204 -0.8934,0.97949 -0.6927,2.23484 0.126,0.7883 0.3169,1.5752 0.4241,1.74864 0.3503,0.56676 1.1772,-0.47499 1.5597,-1.96485 1.3091,-5.09865 1.7205,-5.95513 2.2267,-4.63587 0.1111,0.28958 -0.4217,3.603 -1.184,7.36315 -1.0979,5.41546 -3.1759,17.01126 -3.1759,17.72279 0,0.34837 -1.6879,0.0836 -2.6435,-0.41465 z m 1.5784,-4.11932 c 0.5083,-3.17278 1.7501,-10.04455 2.0081,-11.1125 0.1501,-0.62109 0.039,-0.79375 -0.5088,-0.79375 -0.9689,0 -1.4075,-0.63623 -1.8952,-2.74915 -0.3496,-1.51456 -0.3287,-2.04353 0.1263,-3.20203 l 0.5452,-1.38776 -1.9865,-0.54136 c -6.2383,-1.70009 -14.502,-0.53109 -15.8052,2.23585 -0.2284,0.48507 -0.6877,2.07373 -1.0206,3.53036 l -0.6052,2.64842 0.9378,1.85056 c 0.5158,1.0178 1.2744,2.04851 1.6859,2.29047 0.4116,0.24195 2.5915,1.61859 4.8443,3.0592 2.2528,1.44061 4.9103,3.05295 5.9056,3.58299 0.9953,0.53004 2.4875,1.4548 3.3161,2.05502 0.8286,0.60022 1.6271,1.09131 1.7745,1.09131 0.1474,0 0.4523,-1.15093 0.6777,-2.55763 z m 118.8047,38.3046 2.5576,-0.59819 v -5.60307 -5.60306 l 1.1885,-2.57235 c 1.0339,-2.23765 1.5962,-2.92227 4.3216,-5.26159 5.226,-4.48576 10.0708,-5.96729 12.854,-3.93071 0.6683,0.48901 1.4135,1.15435 1.6561,1.47854 0.3581,0.47873 0.4409,-0.63048 0.4409,-5.906 v -6.49543 l -2.2048,2.16647 c -2.2867,2.24692 -7.9759,5.76864 -11.8846,7.35692 -3.3792,1.37308 -10.7524,2.91419 -15.859,3.31477 -6.1255,0.4805 -19.9315,0.47389 -28.3306,-0.0136 -3.641,-0.21131 -6.7766,-0.33037 -6.9681,-0.26459 -0.3883,0.13341 2.2316,4.51477 4.2204,7.05802 1.2861,1.6445 3.6672,3.7081 8.992,7.79269 4.385,3.36367 11.3426,6.0785 17.8677,6.97191 1.6198,0.22178 3.0115,0.46965 3.0926,0.55081 0.3863,0.3863 5.7802,0.0906 8.0557,-0.44157 z m -94.3398,-28.95599 c -0.6449,-1.54241 -1.5276,-4.80295 -1.5276,-5.6427 0,-0.31965 0.4154,-1.18058 0.9231,-1.91316 0.7264,-1.04817 0.8759,-1.58319 0.7019,-2.51096 -0.2381,-1.2694 -2.0068,-3.19864 -3.285,-3.58321 -0.4279,-0.12876 -3.1115,-2.6882 -5.9635,-5.68763 -2.852,-2.99944 -5.2473,-5.3917 -5.3229,-5.31613 -0.1348,0.1348 -1.796,7.27741 -3.437,14.77781 l -0.8301,3.79417 1.0196,0.72603 c 2.2752,1.6201 9.7525,4.69843 13.7245,5.65028 2.2313,0.53471 4.1679,0.98485 4.3035,1.00031 0.1356,0.0155 0,-0.56721 -0.3065,-1.29481 z m 248.8145,71.22402 c -0.6549,-0.72372 -0.8934,-5.19 -0.3307,-6.1954 0.1902,-0.34001 0.01,-2.34103 -0.4758,-5.22894 -0.4313,-2.57299 -0.8936,-6.06722 -1.0275,-7.76496 -0.1679,-2.12792 -0.3823,-3.08681 -0.6904,-3.08681 -0.4207,0 -1.812,2.04001 -3.0074,4.40973 -0.619,1.22693 -2.0706,1.59006 -2.8074,0.70226 -0.2594,-0.31248 -0.5046,-1.39207 -0.5449,-2.39909 -0.04,-1.00702 -0.1897,-2.42726 -0.3317,-3.15608 l -0.2584,-1.32514 -3.9291,-1.20469 c -2.161,-0.66258 -4.843,-1.47742 -5.9601,-1.81076 -2.2252,-0.66403 -11.9433,-5.91073 -15.9221,-8.59617 -2.1017,-1.41852 -6.3704,-5.66415 -10.889,-10.83018 -0.83,-0.94901 -3.0968,-7.46438 -3.4607,-9.94751 -0.1929,-1.3155 -0.1245,-2.38652 0.228,-3.57371 0.2769,-0.93239 0.658,-2.46833 0.8469,-3.4132 0.1889,-0.94488 0.4406,-2.05831 0.5594,-2.4743 0.1835,-0.6424 -0.097,-0.92298 -1.8591,-1.86237 -3.0615,-1.63175 -7.5446,-5.9121 -9.094,-8.68262 -1.439,-2.57316 -4.7583,-12.30278 -5.6194,-16.47152 -1.892,-9.15954 0.731,-16.86941 7.1321,-20.96419 10.6238,-6.79595 33.7968,-3.94249 54.9557,6.76707 8.5751,4.34029 14.6373,8.66602 20.157,14.38332 5.1804,5.36574 8.2656,10.79608 8.3475,14.69243 0.036,1.69552 -0.06,1.97317 -0.8067,2.35221 -0.5495,0.27877 -1.1331,0.32106 -1.661,0.12036 -0.7313,-0.27804 -0.9137,-0.12323 -1.7987,1.52701 -0.8773,1.63591 -1.37,2.05994 -4.5126,3.88357 -3.4309,1.99091 -3.5811,2.04107 -5.4681,1.82547 l -1.9403,-0.22168 1.5875,0.91283 c 0.8732,0.50206 3.3338,1.79872 5.4681,2.88145 6.0539,3.07116 14.5801,8.82973 18.8736,12.74726 1.2612,1.15073 2.59,2.25517 2.9529,2.4543 0.363,0.19913 1.8339,1.7738 3.2689,3.49925 3.1411,3.77696 3.627,5.11228 2.8049,7.70685 -0.3103,0.97919 -0.728,2.45468 -0.9283,3.27887 -0.5452,2.24418 -3.1602,4.72053 -8.7295,8.2666 -2.9217,1.86033 -3.8011,2.21912 -8.1138,3.31016 -7.0635,1.78692 -10.6469,2.21548 -16.7433,2.00238 l -5.2035,-0.18189 -0.01,1.01878 c 0,0.56033 -0.3077,5.27833 -0.677,10.48445 -0.5574,7.85966 -0.7752,9.58049 -1.2837,10.14236 -0.778,0.8597 -2.3346,0.87086 -3.1026,0.0222 z m 1.9254,-1.19763 c 0.017,-0.0485 0.3745,-5.00945 0.7938,-11.02431 l 0.7623,-10.93611 6.7028,-0.015 c 7.6483,-0.0171 8.3684,-0.10153 15.3288,-1.79715 5.4135,-1.31876 5.9493,-1.52966 9.1117,-3.58608 5.3685,-3.49109 7.8387,-6.06259 7.8387,-8.16019 0,-0.41347 0.2328,-1.30898 0.5174,-1.99002 0.2845,-0.68103 0.4271,-1.68933 0.3169,-2.24065 -0.2191,-1.09503 -4.2403,-6.12706 -5.8003,-7.25815 -0.5352,-0.38806 -1.9783,-1.59022 -3.207,-2.67146 -2.5848,-2.27469 -8.97,-6.9637 -12.0845,-8.87438 -1.1791,-0.7234 -3.8553,-2.18445 -5.947,-3.24679 -2.0916,-1.06233 -4.2412,-2.24348 -4.7766,-2.62479 -1.3143,-0.9358 -4.2423,-1.88455 -9.9411,-3.22107 -5.1496,-1.20773 -12.4383,-4.14283 -15.7664,-6.34901 -2.1838,-1.44768 -2.1784,-0.49449 -0.056,-9.87778 0.7679,-3.39549 1.7822,-8.04859 2.254,-10.34024 1.0162,-4.93648 1.3942,-5.84735 1.7826,-4.29505 0.2674,1.06906 11.5904,13.22022 12.3216,13.22287 0.8403,0.003 3.0445,1.89572 3.6968,3.17426 0.9794,1.91978 0.9106,3.77138 -0.2009,5.40708 l -0.9075,1.33549 0.9604,2.95124 0.9604,2.95124 2.152,0.2195 c 1.1835,0.12072 2.7075,0.29531 3.3866,0.38798 1.023,0.1396 1.7699,-0.1493 4.3555,-1.68467 2.9824,-1.77105 3.166,-1.95298 4.1419,-4.1054 1.0744,-2.36951 1.2721,-2.46755 3.2824,-1.62804 0.6093,0.25444 0.646,0.15871 0.4221,-1.10116 -0.3062,-1.72338 -2.2686,-5.95008 -3.7925,-8.16873 -1.707,-2.48514 -6.7813,-7.63467 -9.9969,-10.14502 -9.3481,-7.2981 -21.8063,-13.2404 -34.3958,-16.40606 -7.8966,-1.98564 -9.948,-2.25544 -17.2861,-2.27357 -6.1681,-0.0152 -7.1709,0.0672 -9.7014,0.798 -8.4683,2.44545 -12.5244,7.65812 -12.5231,16.09417 4e-4,3.36198 1.0528,8.60225 2.4283,12.09194 0.3903,0.99008 0.9678,2.79684 1.2835,4.01503 0.8989,3.46904 3.0604,7.05279 5.7541,9.54037 3.0865,2.85022 4.6515,3.82266 9.0783,5.64063 2.7457,1.12761 3.6803,1.67241 3.6803,2.14534 0,0.77365 -0.022,0.77416 -2.3121,0.0523 -1.0147,-0.31986 -2.0868,-0.48871 -2.3826,-0.37523 -0.3187,0.12229 -0.7049,1.04159 -0.9483,2.25725 -0.2259,1.12801 -0.6177,2.77169 -0.8707,3.65263 -0.5682,1.97907 -0.2729,3.86826 1.3085,8.36864 1.1096,3.15751 1.2904,3.42298 5.3685,7.88228 3.3425,3.65499 4.9387,5.08847 7.675,6.89272 1.9001,1.2529 3.8904,2.46844 4.4228,2.7012 0.5324,0.23276 2.5556,1.32452 4.4958,2.42614 1.9403,1.10161 4.3216,2.24581 5.2917,2.54268 0.9701,0.29686 3.8975,1.18509 6.5052,1.97384 2.6077,0.78875 4.7602,1.4701 4.7833,1.51411 0.2848,0.54212 0.8035,5.26487 0.6497,5.91537 -0.1128,0.47708 0.4306,-0.16319 1.2076,-1.42283 1.7461,-2.83093 2.6559,-3.51777 4.3529,-3.28619 l 1.2708,0.17344 0.2368,3.75984 c 0.1302,2.06791 0.6106,5.98234 1.0676,8.69873 0.5237,3.11273 0.7163,5.15858 0.5209,5.53305 -0.4283,0.82076 -0.3928,4.87389 0.043,4.87389 0.194,0 0.3669,-0.0397 0.3841,-0.0882 z m 12.6686,-35.79527 c -9.3416,-1.59277 -13.8262,-2.62139 -17.2861,-3.96493 -5.1631,-2.00493 -6.3867,-2.60665 -9.6572,-4.74898 -1.5765,-1.03272 -3.3426,-2.12231 -3.9247,-2.42132 -0.9924,-0.50981 -6.4944,-6.19146 -9.3964,-9.70324 -0.7154,-0.8658 -1.6307,-2.47889 -2.0339,-3.58463 -0.6205,-1.70189 -0.6659,-2.15491 -0.2958,-2.95171 0.2405,-0.5177 0.5166,-0.8948 0.6136,-0.83801 0.8588,0.50282 11.8709,5.77117 13.4689,6.44377 1.1332,0.47696 3.0673,1.48351 4.298,2.23679 1.2307,0.75328 3.2012,1.84767 4.3789,2.43198 6.1694,3.06095 16.9815,10.2667 22.8622,15.23652 1.6643,1.40658 1.8123,1.63775 1.2983,2.02847 -0.319,0.24253 -0.7482,0.41973 -0.9536,0.39377 -0.2055,-0.026 -1.7229,-0.27728 -3.3722,-0.55848 z m -0.194,-2.15078 c -2.105,-1.80277 -4.4067,-3.49876 -7.0379,-5.18586 -1.7463,-1.11968 -4.3499,-2.82098 -5.7858,-3.78066 -1.436,-0.95968 -4.611,-2.81436 -7.0556,-4.12152 -2.4446,-1.30716 -5.0797,-2.76556 -5.8558,-3.2409 -0.7761,-0.47533 -2.9986,-1.56349 -4.9389,-2.41812 -1.9403,-0.85464 -4.937,-2.25143 -6.6594,-3.10399 l -3.1316,-1.5501 0.2497,0.99456 c 0.1373,0.547 0.8274,1.70965 1.5337,2.58366 2.666,3.29913 8.0483,8.89238 9.0659,9.42112 0.5821,0.30245 2.352,1.39733 3.9331,2.43307 1.5811,1.03574 3.4067,2.10865 4.057,2.38426 6.957,2.94887 9.0775,3.63179 14.2349,4.58443 2.7164,0.50175 5.4152,0.97281 5.9972,1.04681 0.5821,0.074 1.2092,0.15833 1.3935,0.1874 0.2117,0.0334 0.2117,-0.0529 0,-0.23416 z m -35.9657,-37.35177 c -0.5821,-0.31289 -1.5842,-0.96796 -2.227,-1.45573 -0.6427,-0.48777 -1.9127,-1.25247 -2.8222,-1.69934 -0.9094,-0.44687 -3.171,-1.8095 -5.0257,-3.02806 -1.8547,-1.21857 -4.2037,-2.72958 -5.22,-3.35781 -1.5546,-0.96094 -2.0214,-1.51305 -2.9412,-3.4787 -1.0486,-2.24086 -1.0753,-2.41068 -0.6508,-4.14944 0.2435,-0.99713 0.5815,-2.49911 0.7513,-3.33772 0.4378,-2.16325 1.5648,-3.55326 3.658,-4.51156 4.6514,-2.12946 13.7576,-1.83902 17.6437,0.56275 1.4412,0.89071 1.5624,1.50614 0.45,2.2853 -0.6413,0.44919 -0.782,0.85735 -0.7329,2.12611 0.033,0.86361 0.1682,1.74404 0.2995,1.95652 0.4595,0.74347 1.463,-0.69712 1.9165,-2.7513 0.5811,-2.63221 1.2866,-4.31668 1.8079,-4.31668 0.5371,0 0.3398,1.5447 -1.0367,8.11389 -0.5895,2.81341 -1.4039,7.09966 -1.8097,9.525 -1.3347,7.97751 -1.3728,8.11558 -2.2336,8.09977 -0.4228,-0.008 -1.245,-0.27012 -1.8271,-0.583 z m 1.2442,-1.60774 c 0.048,-0.44455 2.1264,-12.3551 2.3088,-13.22917 0.207,-0.99151 0.1439,-1.14652 -0.4671,-1.14652 -0.9777,0 -1.3513,-0.57151 -1.8501,-2.83031 -0.3618,-1.63817 -0.3453,-2.15177 0.1036,-3.2261 l 0.5339,-1.27775 -1.995,-0.54375 c -4.58,-1.24832 -10.5566,-1.02143 -13.7445,0.52178 -1.7083,0.827 -2.1143,1.54302 -3.0458,5.37175 l -0.5901,2.42535 0.9279,1.89665 c 0.7087,1.44854 1.3177,2.1224 2.5775,2.85217 0.9072,0.52554 3.5472,2.1922 5.8667,3.7037 2.3195,1.51149 4.3943,2.74817 4.6106,2.74817 0.2164,0 1.2445,0.635 2.2847,1.41111 1.6377,1.22186 2.4436,1.65198 2.4789,1.32292 z m 24.2872,5.1865 c -1.2372,-3.68187 -1.2491,-4.19342 -0.1314,-5.65883 1.6318,-2.13933 0.7767,-4.7412 -1.9881,-6.04978 -1.0392,-0.49186 -3.1877,-2.46499 -6.61,-6.0706 -2.7887,-2.93804 -5.1188,-5.29343 -5.178,-5.2342 -0.2029,0.20295 -4.0392,17.53568 -4.0392,18.24968 0,0.56674 1.0507,1.23243 5.1162,3.24158 4.046,1.99949 5.9831,2.73069 9.2605,3.49555 2.2793,0.53195 4.243,0.98406 4.3638,1.00468 0.1208,0.0206 -0.2364,-1.31951 -0.7938,-2.97808 z m -524.1827,56.41575 c -1.3083,-0.82485 -2.6956,-3.22456 -3.1347,-5.42239 -0.5891,-2.94844 -2.0926,-13.81911 -2.4884,-17.99167 -0.3587,-3.78207 -0.6484,-13.07997 -1.6104,-51.68194 -0.6726,-26.99185 -1.0487,-36.04649 -1.5504,-37.32922 -0.2136,-0.5462 -0.3884,-2.33387 -0.3884,-3.97259 0,-3.95736 0.6809,-5.35547 4.2844,-8.79832 2.244,-2.14383 3.502,-3.01341 6.2262,-4.30363 1.8778,-0.88931 4.056,-1.68929 4.8406,-1.77773 1.2453,-0.14036 1.627,0.006 3.0037,1.1482 0.8674,0.71994 1.9466,2.02499 2.3983,2.9001 1.6494,3.19563 1.8185,5.22985 2.3455,28.21653 0.2736,11.93571 0.5605,21.76429 0.6375,21.8413 0.077,0.077 0.7607,-0.30954 1.5193,-0.859 4.0159,-2.90878 7.891,-5.06358 10.5823,-5.88449 2.4604,-0.75047 3.589,-0.88254 7.5412,-0.88254 4.3685,0 4.8001,0.0637 7.181,1.0599 4.2695,1.78644 8.4733,5.57795 11.2125,10.11279 2.2573,3.73712 5.2499,10.04233 6.5015,13.69814 0.5314,1.55223 1.4152,3.80269 1.9639,5.00103 0.5488,1.19835 1.4123,3.81772 1.919,5.82084 0.5066,2.00311 2.5899,8.64265 4.6294,14.75452 2.0395,6.11188 3.7939,11.92628 3.8988,12.92089 0.1641,1.55608 0.032,2.12211 -0.949,4.05695 -1.838,3.62635 -3.7916,5.638 -7.1363,7.34855 -3.785,1.93566 -6.044,2.61225 -7.7898,2.33308 -2.0495,-0.32772 -3.9589,-1.43601 -4.7269,-2.7436 -0.785,-1.33656 -2.9368,-7.96373 -6.2763,-19.32976 -1.2827,-4.36562 -3.576,-11.19187 -5.0964,-15.16944 -1.5203,-3.97757 -2.8812,-7.62882 -3.0243,-8.11389 -0.1431,-0.48507 -0.8369,-1.83444 -1.5418,-2.99861 l -1.2818,-2.11667 -0.1,4.3873 c -0.057,2.49559 -0.2654,4.5871 -0.4841,4.85069 -0.4881,0.58811 -2.2131,0.60247 -2.6944,0.0224 -0.2012,-0.24253 -0.7753,-1.5288 -1.2757,-2.85836 -0.6791,-1.80444 -1.0427,-3.81707 -1.4339,-7.9375 -0.5055,-5.3233 -0.559,-5.54835 -1.5016,-6.31211 -0.5375,-0.4356 -1.1361,-0.78774 -1.3301,-0.78253 -0.7397,0.0199 -1.6058,1.00082 -2.2015,2.49364 -0.562,1.4084 -0.6349,3.76261 -0.7961,25.71561 l -0.1774,24.16528 -0.9991,2.35989 c -0.5495,1.29794 -1.5319,3.10924 -2.1831,4.02511 -1.5056,2.11773 -6.4409,6.24407 -9.0668,7.58067 -1.8055,0.91903 -2.3636,1.02639 -5.2917,1.018 -2.3586,-0.007 -3.5197,-0.16477 -4.1552,-0.56545 z m 8.7429,-2.03979 c 2.4054,-1.22979 7.1302,-5.28405 8.3939,-7.20269 0.597,-0.90638 1.4304,-2.47114 1.8521,-3.47725 0.7603,-1.81418 0.7666,-2.01823 0.7666,-24.70154 0,-21.94993 0.029,-22.97714 0.7208,-25.47345 0.8905,-3.21346 1.2672,-3.92405 2.7234,-5.13828 l 1.1511,-0.95982 1.6528,0.82896 c 2.5956,1.30187 2.8293,1.8523 3.4443,8.11158 0.3932,4.00229 0.7793,6.13488 1.4049,7.76111 l 0.8627,2.24239 0.017,-6.5074 0.017,-6.50739 1.2218,1.18425 c 1.606,1.55657 4.6163,6.49525 5.4679,8.97053 0.3718,1.08042 1.7901,4.86467 3.1518,8.40943 1.3617,3.54477 3.6644,10.49315 5.117,15.44086 3.0035,10.23032 4.9066,16.1453 5.669,17.61968 0.3468,0.6705 1.077,1.2246 2.158,1.63743 2.0499,0.78287 3.6101,0.44405 7.8562,-1.70604 3.3371,-1.68984 5.1257,-3.52371 6.6199,-6.78733 0.7238,-1.58107 0.8698,-2.31147 0.6886,-3.44456 -0.1264,-0.79091 -1.8006,-6.13471 -3.7204,-11.87512 -1.9197,-5.74042 -3.9819,-12.31741 -4.5825,-14.61556 -0.6006,-2.29814 -1.415,-4.81154 -1.8097,-5.58533 -0.3948,-0.77379 -1.2791,-3.02099 -1.9653,-4.99378 -1.5438,-4.43901 -4.0894,-9.88061 -6.4193,-13.72271 -2.6244,-4.32765 -6.7397,-8.06508 -10.6138,-9.63926 -1.8503,-0.75185 -2.6751,-0.86242 -6.4328,-0.86242 -6.9662,0 -9.2301,0.92871 -18.8925,7.75014 -1.2093,0.85369 -2.2763,1.47451 -2.3712,1.3796 -0.095,-0.0949 -0.414,-10.66729 -0.709,-23.49417 -0.3209,-13.95222 -0.6977,-24.07384 -0.938,-25.19403 -0.6129,-2.85785 -1.4973,-4.62224 -2.9611,-5.90754 -1.5983,-1.40332 -1.9254,-1.36949 -6.2824,0.64985 -2.5007,1.15903 -3.621,1.95077 -5.6956,4.02537 -3.4914,3.4914 -3.8052,4.16662 -3.6007,7.74877 0.09,1.58373 0.333,3.83201 0.5391,4.99618 0.2061,1.16416 0.539,8.46666 0.7397,16.22777 0.2008,7.76112 0.5236,19.90549 0.7174,26.9875 0.1937,7.08202 0.5195,19.06764 0.724,26.63473 0.4122,15.26079 0.6595,18.76667 1.9404,27.51666 1.2665,8.65143 1.5202,9.70172 2.7052,11.2007 l 1.0459,1.32291 h 2.9807 c 2.455,0 3.2741,-0.15002 4.6446,-0.85073 z"
           id="path22" /></g></g></g></svg>
